<svg version="1.1" xmlns="http://www.w3.org/2000/svg" viewBox="0 0 1954 888.8205939262826" width="1954" height="888.8205939262826">
  <!-- svg-source:excalidraw -->
  
  <defs>
    <style class="style-fonts">
      @font-face {
        font-family: "Virgil";
        src: url("https://excalidraw.com/Virgil.woff2");
      }
      @font-face {
        font-family: "Cascadia";
        src: url("https://excalidraw.com/Cascadia.woff2");
      }
    </style>
    
  </defs>
  <rect x="0" y="0" width="1954" height="888.8205939262826" fill="#ffffff"></rect><g stroke-linecap="round" transform="translate(36 92.2750244140625) rotate(0 126 108.5)"><path d="M32 0 M32 0 C84.36 1.8, 140.62 0.35, 220 0 M32 0 C105.37 1.1, 179.38 1.65, 220 0 M220 0 C242.17 1.36, 253.97 10.92, 252 32 M220 0 C242.7 0.1, 251.23 12.64, 252 32 M252 32 C250.02 78.53, 250.58 124.45, 252 185 M252 32 C251.34 91.68, 250.82 153.37, 252 185 M252 185 C250.87 208.01, 242.51 218.37, 220 217 M252 185 C250.89 204.25, 239.9 215.22, 220 217 M220 217 C175.22 218.42, 132.88 215.84, 32 217 M220 217 C147.67 216.33, 72.68 218.03, 32 217 M32 217 C10.6 217.49, 1.85 206.69, 0 185 M32 217 C9.26 219.11, -1.28 204.46, 0 185 M0 185 C0.05 144.4, 0.2 102.45, 0 32 M0 185 C-1.04 143.44, -0.94 102.77, 0 32 M0 32 C-1.84 11.37, 11.29 1.03, 32 0 M0 32 C-0.36 12.59, 12.64 0.91, 32 0" stroke="#1e1e1e" stroke-width="1" fill="none"></path></g><g stroke-linecap="round" transform="translate(1072 107.2750244140625) rotate(0 126 108.5)"><path d="M32 0 M32 0 C99.32 0.94, 165.19 -0.88, 220 0 M32 0 C83.75 1.57, 133.47 0.32, 220 0 M220 0 C241.2 -1.28, 252.19 12.58, 252 32 M220 0 C239.35 0.82, 253.67 8.51, 252 32 M252 32 C252.08 84.96, 252.26 132.54, 252 185 M252 32 C250.03 65.32, 251.77 98.93, 252 185 M252 185 C251.89 206.36, 243.24 216.78, 220 217 M252 185 C251.6 208.28, 239.24 214.72, 220 217 M220 217 C169.88 218.58, 118.63 216.69, 32 217 M220 217 C174.35 215.25, 131.05 214.37, 32 217 M32 217 C11.76 215.93, -1.58 205.39, 0 185 M32 217 C8.58 218.71, -0.55 207.84, 0 185 M0 185 C-1.72 144.24, -0.9 101.98, 0 32 M0 185 C-0.83 128.08, -0.54 70.73, 0 32 M0 32 C-0.31 10.81, 9.34 -0.84, 32 0 M0 32 C-0.39 10.73, 10.98 -1.83, 32 0" stroke="#1e1e1e" stroke-width="1" fill="none"></path></g><g stroke-linecap="round" transform="translate(10 535.2750244140625) rotate(0 126 108.5)"><path d="M32 0 M32 0 C73.83 2.53, 113.69 2.93, 220 0 M32 0 C70.77 0.33, 111.74 1.03, 220 0 M220 0 C240.91 -0.99, 251 8.96, 252 32 M220 0 C242.71 -1.7, 252.25 9.45, 252 32 M252 32 C255.01 90.6, 254.75 150.62, 252 185 M252 32 C251.8 68.68, 251.37 104.64, 252 185 M252 185 C252.5 207.93, 240.28 216.52, 220 217 M252 185 C250.73 206.7, 243.37 219.27, 220 217 M220 217 C152.2 215.9, 81.04 216.37, 32 217 M220 217 C174.02 216.61, 128.87 216.66, 32 217 M32 217 C9.43 215.99, -1.07 206.14, 0 185 M32 217 C11.02 218.36, 1.46 206.54, 0 185 M0 185 C-0.01 128.3, -0.12 71.29, 0 32 M0 185 C-1.87 144.8, -1.68 104.4, 0 32 M0 32 C0.53 12.24, 11.62 -0.69, 32 0 M0 32 C1.26 9.68, 12.92 1.83, 32 0" stroke="#1e1e1e" stroke-width="1" fill="none"></path></g><g stroke-linecap="round" transform="translate(1046 550.2750244140625) rotate(0 126 108.5)"><path d="M32 0 M32 0 C96.56 -1.7, 164.36 -1.88, 220 0 M32 0 C77.57 -1.75, 124.82 -1.71, 220 0 M220 0 C241.53 1.92, 250.28 11.38, 252 32 M220 0 C243 -2.15, 252.8 8.76, 252 32 M252 32 C254.55 60.74, 251.35 91.63, 252 185 M252 32 C251.8 69.9, 250.76 106.21, 252 185 M252 185 C253.91 206.11, 240.99 218.69, 220 217 M252 185 C249.91 204.05, 240.52 215.87, 220 217 M220 217 C152.7 216.41, 87.79 219.58, 32 217 M220 217 C182.23 216.21, 143.41 216.52, 32 217 M32 217 C9.09 216.06, -1.82 207.82, 0 185 M32 217 C10.11 218.5, -0.62 206.93, 0 185 M0 185 C0.51 137.27, 2.5 89.7, 0 32 M0 185 C0.23 134.96, -0.3 84.37, 0 32 M0 32 C-1.33 9.82, 10.33 0.06, 32 0 M0 32 C0.31 8.84, 11.94 1.79, 32 0" stroke="#1e1e1e" stroke-width="1" fill="none"></path></g><g stroke-linecap="round" transform="translate(626 552.2750244140625) rotate(0 126 108.5)"><path d="M32 0 M32 0 C102.9 -1.89, 177.85 -0.74, 220 0 M32 0 C98.77 1.06, 164.45 1.38, 220 0 M220 0 C239.52 -0.56, 250.18 9.56, 252 32 M220 0 C240.8 1.1, 253.72 9.89, 252 32 M252 32 C250.32 91.42, 251.62 147.32, 252 185 M252 32 C251.98 85.35, 252 139.39, 252 185 M252 185 C252.11 207.96, 242.87 216.55, 220 217 M252 185 C251 208.45, 243.31 215.46, 220 217 M220 217 C152.32 215.76, 84.08 217.39, 32 217 M220 217 C152.76 217.57, 87.04 218.57, 32 217 M32 217 C10.92 216.66, -1.83 204.92, 0 185 M32 217 C11.54 215.42, 0.08 204.94, 0 185 M0 185 C1.41 136.82, -1.73 88.33, 0 32 M0 185 C-0.36 150.61, -0.26 114.51, 0 32 M0 32 C1.89 10.35, 10.1 -0.35, 32 0 M0 32 C1.99 11.36, 12.58 -1.45, 32 0" stroke="#1e1e1e" stroke-width="1" fill="none"></path></g><g stroke-linecap="round" transform="translate(1662 567.2750244140625) rotate(0 126 108.5)"><path d="M32 0 M32 0 C86.4 1.23, 140.5 0.73, 220 0 M32 0 C98.6 1.58, 165.91 1.74, 220 0 M220 0 C243.25 -1.72, 252.71 12.12, 252 32 M220 0 C239.18 0.8, 250.1 8.37, 252 32 M252 32 C251.48 86.5, 251.77 143.2, 252 185 M252 32 C253.19 66.05, 252.4 101.17, 252 185 M252 185 C251.78 205.99, 243.03 215.18, 220 217 M252 185 C249.72 205.52, 240.21 218.11, 220 217 M220 217 C165.51 214.08, 115.4 213.41, 32 217 M220 217 C177.35 219.05, 135.86 217.71, 32 217 M32 217 C9.73 215.18, 1.49 205.85, 0 185 M32 217 C12.17 216.38, 0.6 206.69, 0 185 M0 185 C-0.25 150.71, 0.44 114.03, 0 32 M0 185 C-0.26 137.46, -0.5 89.58, 0 32 M0 32 C-0.84 10.33, 10.72 0.27, 32 0 M0 32 C-1.83 11.94, 12.46 1.37, 32 0" stroke="#1e1e1e" stroke-width="1" fill="none"></path></g><g stroke-linecap="round" transform="translate(656 75.2750244140625) rotate(0 126 108.5)"><path d="M32 0 M32 0 C84.44 0.34, 136.73 2.64, 220 0 M32 0 C100.67 0.93, 169.94 1.36, 220 0 M220 0 C241.9 -0.69, 252.89 11.72, 252 32 M220 0 C239.39 2.07, 253.14 10.79, 252 32 M252 32 C252.67 93.06, 251.31 156.1, 252 185 M252 32 C250.51 79.79, 250.8 128.75, 252 185 M252 185 C250.36 205.67, 242.61 216.49, 220 217 M252 185 C253.37 205.63, 243.35 218.23, 220 217 M220 217 C158.3 215.92, 96.38 218.38, 32 217 M220 217 C154.8 218.97, 87.57 219.12, 32 217 M32 217 C9.58 217.49, -0.33 204.93, 0 185 M32 217 C12.2 216.45, -0.7 204.48, 0 185 M0 185 C1.43 133.68, -1.31 88.18, 0 32 M0 185 C1.32 129.18, 1 72.6, 0 32 M0 32 C-0.73 12.38, 12.3 0.26, 32 0 M0 32 C1.06 11.7, 11.61 1.68, 32 0" stroke="#1e1e1e" stroke-width="1" fill="none"></path></g><g stroke-linecap="round" transform="translate(1692 90.2750244140625) rotate(0 126 108.5)"><path d="M32 0 M32 0 C89.07 -2.84, 142.5 -1.22, 220 0 M32 0 C75.52 -1.45, 121.49 -2.74, 220 0 M220 0 C242.03 -1.66, 250 12.01, 252 32 M220 0 C243.36 1.75, 249.86 8.74, 252 32 M252 32 C251.63 67.81, 252.73 99.61, 252 185 M252 32 C253.28 78.93, 252.55 123.17, 252 185 M252 185 C251.3 205.35, 242.3 216.67, 220 217 M252 185 C252.77 204.26, 239.93 215.59, 220 217 M220 217 C145.37 217.14, 68.94 216.64, 32 217 M220 217 C172.75 216.86, 127.09 216.77, 32 217 M32 217 C10.13 217.52, 0.31 205.01, 0 185 M32 217 C11.82 216.42, 0.6 208.05, 0 185 M0 185 C0.3 130.64, 0.18 74.45, 0 32 M0 185 C0.85 138.03, 1.15 90.21, 0 32 M0 32 C1.11 12.23, 11.86 -0.72, 32 0 M0 32 C1.5 8.83, 9.95 1.6, 32 0" stroke="#1e1e1e" stroke-width="1" fill="none"></path></g><g transform="translate(74 61.2750244140625) rotate(0 22.34166717529297 12.5)"><text x="0" y="0" font-family="Virgil, Segoe UI Emoji" font-size="20px" fill="#1e1e1e" text-anchor="start" style="white-space: pre;" direction="ltr" dominant-baseline="text-before-edge">User</text></g><g transform="translate(1110 76.2750244140625) rotate(0 22.34166717529297 12.5)"><text x="0" y="0" font-family="Virgil, Segoe UI Emoji" font-size="20px" fill="#1e1e1e" text-anchor="start" style="white-space: pre;" direction="ltr" dominant-baseline="text-before-edge">User</text></g><g transform="translate(48 504.2750244140625) rotate(0 26.40833282470703 12.5)"><text x="0" y="0" font-family="Virgil, Segoe UI Emoji" font-size="20px" fill="#1e1e1e" text-anchor="start" style="white-space: pre;" direction="ltr" dominant-baseline="text-before-edge">Score</text></g><g transform="translate(1084 519.2750244140625) rotate(0 26.40833282470703 12.5)"><text x="0" y="0" font-family="Virgil, Segoe UI Emoji" font-size="20px" fill="#1e1e1e" text-anchor="start" style="white-space: pre;" direction="ltr" dominant-baseline="text-before-edge">Score</text></g><g transform="translate(51 108.2750244140625) rotate(0 58.83333206176758 37.5)"><text x="0" y="0" font-family="Virgil, Segoe UI Emoji" font-size="20px" fill="#1e1e1e" text-anchor="start" style="white-space: pre;" direction="ltr" dominant-baseline="text-before-edge">id_user</text><text x="0" y="25" font-family="Virgil, Segoe UI Emoji" font-size="20px" fill="#1e1e1e" text-anchor="start" style="white-space: pre;" direction="ltr" dominant-baseline="text-before-edge">pseudo</text><text x="0" y="50" font-family="Virgil, Segoe UI Emoji" font-size="20px" fill="#1e1e1e" text-anchor="start" style="white-space: pre;" direction="ltr" dominant-baseline="text-before-edge">created_at</text></g><g transform="translate(1087 123.2750244140625) rotate(0 58.83333206176758 37.5)"><text x="0" y="0" font-family="Virgil, Segoe UI Emoji" font-size="20px" fill="#1e1e1e" text-anchor="start" style="white-space: pre;" direction="ltr" dominant-baseline="text-before-edge">id_user</text><text x="0" y="25" font-family="Virgil, Segoe UI Emoji" font-size="20px" fill="#1e1e1e" text-anchor="start" style="white-space: pre;" direction="ltr" dominant-baseline="text-before-edge">pseudo</text><text x="0" y="50" font-family="Virgil, Segoe UI Emoji" font-size="20px" fill="#1e1e1e" text-anchor="start" style="white-space: pre;" direction="ltr" dominant-baseline="text-before-edge">created_at</text></g><g transform="translate(682 47.2750244140625) rotate(0 41.68333435058594 12.5)"><text x="0" y="0" font-family="Virgil, Segoe UI Emoji" font-size="20px" fill="#1e1e1e" text-anchor="start" style="white-space: pre;" direction="ltr" dominant-baseline="text-before-edge">Question</text></g><g transform="translate(1718 62.2750244140625) rotate(0 41.68333435058594 12.5)"><text x="0" y="0" font-family="Virgil, Segoe UI Emoji" font-size="20px" fill="#1e1e1e" text-anchor="start" style="white-space: pre;" direction="ltr" dominant-baseline="text-before-edge">Question</text></g><g transform="translate(673 92.2750244140625) rotate(0 56.233333587646484 37.5)"><text x="0" y="0" font-family="Virgil, Segoe UI Emoji" font-size="20px" fill="#1e1e1e" text-anchor="start" style="white-space: pre;" direction="ltr" dominant-baseline="text-before-edge">id_question</text><text x="0" y="25" font-family="Virgil, Segoe UI Emoji" font-size="20px" fill="#1e1e1e" text-anchor="start" style="white-space: pre;" direction="ltr" dominant-baseline="text-before-edge">question</text><text x="0" y="50" font-family="Virgil, Segoe UI Emoji" font-size="20px" fill="#1e1e1e" text-anchor="start" style="white-space: pre;" direction="ltr" dominant-baseline="text-before-edge"></text></g><g transform="translate(1709 107.2750244140625) rotate(0 56.233333587646484 37.5)"><text x="0" y="0" font-family="Virgil, Segoe UI Emoji" font-size="20px" fill="#1e1e1e" text-anchor="start" style="white-space: pre;" direction="ltr" dominant-baseline="text-before-edge">id_question</text><text x="0" y="25" font-family="Virgil, Segoe UI Emoji" font-size="20px" fill="#1e1e1e" text-anchor="start" style="white-space: pre;" direction="ltr" dominant-baseline="text-before-edge">question</text><text x="0" y="50" font-family="Virgil, Segoe UI Emoji" font-size="20px" fill="#1e1e1e" text-anchor="start" style="white-space: pre;" direction="ltr" dominant-baseline="text-before-edge"></text></g><g transform="translate(660 522.2750244140625) rotate(0 43.724998474121094 12.5)"><text x="0" y="0" font-family="Virgil, Segoe UI Emoji" font-size="20px" fill="#1e1e1e" text-anchor="start" style="white-space: pre;" direction="ltr" dominant-baseline="text-before-edge">Response</text></g><g transform="translate(1696 537.2750244140625) rotate(0 43.724998474121094 12.5)"><text x="0" y="0" font-family="Virgil, Segoe UI Emoji" font-size="20px" fill="#1e1e1e" text-anchor="start" style="white-space: pre;" direction="ltr" dominant-baseline="text-before-edge">Response</text></g><g transform="translate(650 574.2750244140625) rotate(0 57.38333511352539 37.5)"><text x="0" y="0" font-family="Virgil, Segoe UI Emoji" font-size="20px" fill="#1e1e1e" text-anchor="start" style="white-space: pre;" direction="ltr" dominant-baseline="text-before-edge">id_response</text><text x="0" y="25" font-family="Virgil, Segoe UI Emoji" font-size="20px" fill="#1e1e1e" text-anchor="start" style="white-space: pre;" direction="ltr" dominant-baseline="text-before-edge">response</text><text x="0" y="50" font-family="Virgil, Segoe UI Emoji" font-size="20px" fill="#1e1e1e" text-anchor="start" style="white-space: pre;" direction="ltr" dominant-baseline="text-before-edge">is_correct</text></g><g transform="translate(1687 589.2750244140625) rotate(0 57.38059616088867 50)"><text x="0" y="0" font-family="Virgil, Segoe UI Emoji" font-size="20px" fill="#1e1e1e" text-anchor="start" style="white-space: pre;" direction="ltr" dominant-baseline="text-before-edge">id_response</text><text x="0" y="25" font-family="Virgil, Segoe UI Emoji" font-size="20px" fill="#1e1e1e" text-anchor="start" style="white-space: pre;" direction="ltr" dominant-baseline="text-before-edge">response</text><text x="0" y="50" font-family="Virgil, Segoe UI Emoji" font-size="20px" fill="#1e1e1e" text-anchor="start" style="white-space: pre;" direction="ltr" dominant-baseline="text-before-edge">is_correct</text><text x="0" y="75" font-family="Virgil, Segoe UI Emoji" font-size="20px" fill="#1e1e1e" text-anchor="start" style="white-space: pre;" direction="ltr" dominant-baseline="text-before-edge">question_id</text></g><g transform="translate(26 549.2750244140625) rotate(0 41.89552307128906 25)"><text x="0" y="0" font-family="Virgil, Segoe UI Emoji" font-size="20px" fill="#1e1e1e" text-anchor="start" style="white-space: pre;" direction="ltr" dominant-baseline="text-before-edge">id_score</text><text x="0" y="25" font-family="Virgil, Segoe UI Emoji" font-size="20px" fill="#1e1e1e" text-anchor="start" style="white-space: pre;" direction="ltr" dominant-baseline="text-before-edge">points</text></g><g transform="translate(1062 564.2750244140625) rotate(0 77.13433074951172 50)"><text x="0" y="0" font-family="Virgil, Segoe UI Emoji" font-size="20px" fill="#1e1e1e" text-anchor="start" style="white-space: pre;" direction="ltr" dominant-baseline="text-before-edge">id_score</text><text x="0" y="25" font-family="Virgil, Segoe UI Emoji" font-size="20px" fill="#1e1e1e" text-anchor="start" style="white-space: pre;" direction="ltr" dominant-baseline="text-before-edge">points</text><text x="0" y="50" font-family="Virgil, Segoe UI Emoji" font-size="20px" fill="#1e1e1e" text-anchor="start" style="white-space: pre;" direction="ltr" dominant-baseline="text-before-edge">datetime_score</text><text x="0" y="75" font-family="Virgil, Segoe UI Emoji" font-size="20px" fill="#1e1e1e" text-anchor="start" style="white-space: pre;" direction="ltr" dominant-baseline="text-before-edge">user_id</text></g><g stroke-linecap="round" transform="translate(378 94.2750244140625) rotate(0 80.5 57)"><path d="M28.5 0 M28.5 0 C53.46 -1.6, 77.61 0.41, 132.5 0 M132.5 0 C152.83 -1.14, 159.21 10.68, 161 28.5 M161 28.5 C160.71 44.68, 160.19 60.93, 161 85.5 M161 85.5 C162.1 104.03, 153.18 115.53, 132.5 114 M132.5 114 C94.01 113.33, 55 115.79, 28.5 114 M28.5 114 C11.01 113.09, 0.3 106.16, 0 85.5 M0 85.5 C-1.15 69.9, 1.51 51.84, 0 28.5 M0 28.5 C-0.44 8.24, 11.38 1.16, 28.5 0" stroke="#1e1e1e" stroke-width="1.5" fill="none" stroke-dasharray="8 9"></path></g><g transform="translate(395.2333335876465 113.7750244140625) rotate(0 63.266666412353516 37.5)"><text x="63.266666412353516" y="0" font-family="Virgil, Segoe UI Emoji" font-size="20px" fill="#1e1e1e" text-anchor="middle" style="white-space: pre;" direction="ltr" dominant-baseline="text-before-edge">answer</text><text x="63.266666412353516" y="25" font-family="Virgil, Segoe UI Emoji" font-size="20px" fill="#1e1e1e" text-anchor="middle" style="white-space: pre;" direction="ltr" dominant-baseline="text-before-edge">generate_at</text><text x="63.266666412353516" y="50" font-family="Virgil, Segoe UI Emoji" font-size="20px" fill="#1e1e1e" text-anchor="middle" style="white-space: pre;" direction="ltr" dominant-baseline="text-before-edge">datetime_a</text></g><g stroke-linecap="round" transform="translate(1412 44.2750244140625) rotate(0 101 83.5)"><path d="M32 0 M32 0 C88.09 -2.37, 141.96 -2.15, 170 0 M32 0 C60.36 -2.15, 86.36 -2, 170 0 M170 0 C190.18 -1.54, 202.51 12.62, 202 32 M170 0 C193.18 -0.13, 202.03 12.86, 202 32 M202 32 C200 59.77, 201.12 90.53, 202 135 M202 32 C200.93 67.27, 201.22 104.74, 202 135 M202 135 C200.1 154.78, 191.39 168.6, 170 167 M202 135 C200.05 157.6, 190.1 165.18, 170 167 M170 167 C134.61 169.33, 99.65 168.55, 32 167 M170 167 C126.23 167.95, 83.7 168.3, 32 167 M32 167 C11.25 167.19, 0.75 157.09, 0 135 M32 167 C11.38 166.64, 0.17 154.8, 0 135 M0 135 C0.44 106.85, 1.28 83.44, 0 32 M0 135 C-0.43 97.67, 1.06 61.88, 0 32 M0 32 C1.02 9.77, 9.67 0.7, 32 0 M0 32 C0.64 9.43, 11.93 0.05, 32 0" stroke="#1e1e1e" stroke-width="1" fill="none"></path></g><g transform="translate(1449.7089538574219 77.7750244140625) rotate(0 63.291046142578125 50)"><text x="63.291046142578125" y="0" font-family="Virgil, Segoe UI Emoji" font-size="20px" fill="#1e1e1e" text-anchor="middle" style="white-space: pre;" direction="ltr" dominant-baseline="text-before-edge">generate_at</text><text x="63.291046142578125" y="25" font-family="Virgil, Segoe UI Emoji" font-size="20px" fill="#1e1e1e" text-anchor="middle" style="white-space: pre;" direction="ltr" dominant-baseline="text-before-edge">datetime_a</text><text x="63.291046142578125" y="50" font-family="Virgil, Segoe UI Emoji" font-size="20px" fill="#1e1e1e" text-anchor="middle" style="white-space: pre;" direction="ltr" dominant-baseline="text-before-edge">user_id</text><text x="63.291046142578125" y="75" font-family="Virgil, Segoe UI Emoji" font-size="20px" fill="#1e1e1e" text-anchor="middle" style="white-space: pre;" direction="ltr" dominant-baseline="text-before-edge">question_id</text></g><g stroke-linecap="round" transform="translate(699 352.2750244140625) rotate(0 80.5 57)"><path d="M28.5 0 M28.5 0 C47.98 2.32, 69.95 -0.44, 132.5 0 M132.5 0 C150 0.68, 159.32 8.46, 161 28.5 M161 28.5 C161.7 50.76, 159.96 68.67, 161 85.5 M161 85.5 C162.69 104.42, 150.36 113.15, 132.5 114 M132.5 114 C101.88 114.53, 76.89 115.18, 28.5 114 M28.5 114 C10.28 115.55, 1.04 104.57, 0 85.5 M0 85.5 C-1.49 67.07, -0.19 44.09, 0 28.5 M0 28.5 C0.3 7.53, 11.37 1.23, 28.5 0" stroke="#1e1e1e" stroke-width="1.5" fill="none" stroke-dasharray="8 9"></path></g><g transform="translate(761.8666667938232 396.7750244140625) rotate(0 17.633333206176758 12.5)"><text x="17.633333206176758" y="0" font-family="Virgil, Segoe UI Emoji" font-size="20px" fill="#1e1e1e" text-anchor="middle" style="white-space: pre;" direction="ltr" dominant-baseline="text-before-edge">bind</text></g><g stroke-linecap="round" transform="translate(89 358.2750244140625) rotate(0 80.5 57)"><path d="M28.5 0 M28.5 0 C53.03 -0.1, 77.77 -2.6, 132.5 0 M132.5 0 C153.47 -1.53, 161.63 7.8, 161 28.5 M161 28.5 C158.8 47.31, 159.67 63.01, 161 85.5 M161 85.5 C161.17 106.01, 153.49 112.15, 132.5 114 M132.5 114 C93.9 116.27, 52.23 115.39, 28.5 114 M28.5 114 C11.34 112.02, -1.25 103.33, 0 85.5 M0 85.5 C0.88 65.71, 1.43 48.14, 0 28.5 M0 28.5 C-0.52 10.38, 7.84 -1.01, 28.5 0" stroke="#1e1e1e" stroke-width="1.5" fill="none" stroke-dasharray="8 9"></path></g><g transform="translate(97.83582305908203 377.7750244140625) rotate(0 71.66417694091797 37.5)"><text x="71.66417694091797" y="0" font-family="Virgil, Segoe UI Emoji" font-size="20px" fill="#1e1e1e" text-anchor="middle" style="white-space: pre;" direction="ltr" dominant-baseline="text-before-edge">get</text><text x="71.66417694091797" y="25" font-family="Virgil, Segoe UI Emoji" font-size="20px" fill="#1e1e1e" text-anchor="middle" style="white-space: pre;" direction="ltr" dominant-baseline="text-before-edge">datetime_scor</text><text x="71.66417694091797" y="50" font-family="Virgil, Segoe UI Emoji" font-size="20px" fill="#1e1e1e" text-anchor="middle" style="white-space: pre;" direction="ltr" dominant-baseline="text-before-edge">e</text></g><g stroke-linecap="round"><g transform="translate(287 166.2750244140625) rotate(0 44.76060408995953 -0.47864721668528887)"><path d="M0.57 -0.95 C15.72 -1.49, 75.26 -1.93, 90.11 -2.12 M-0.59 1.16 C14.57 1.25, 74.78 -0.75, 89.74 -1.17" stroke="#1e1e1e" stroke-width="1" fill="none"></path></g></g><mask></mask><g stroke-linecap="round"><g transform="translate(538 154.2750244140625) rotate(0 59.090003016730776 4.615620611021299)"><path d="M0.09 0.74 C19.6 1.94, 97.72 6.53, 117.21 8.09 M-1.33 0.09 C18.55 1.34, 99.39 7.78, 119.51 9.15" stroke="#1e1e1e" stroke-width="1" fill="none"></path></g></g><mask></mask><g transform="translate(311 112.2750244140625) rotate(0 15.891666412353516 25)"><text x="0" y="0" font-family="Virgil, Segoe UI Emoji" font-size="20px" fill="#1e1e1e" text-anchor="start" style="white-space: pre;" direction="ltr" dominant-baseline="text-before-edge"></text><text x="0" y="25" font-family="Virgil, Segoe UI Emoji" font-size="20px" fill="#1e1e1e" text-anchor="start" style="white-space: pre;" direction="ltr" dominant-baseline="text-before-edge">0,N</text></g><g transform="translate(579 131.2750244140625) rotate(0 15.891666412353516 12.5)"><text x="0" y="0" font-family="Virgil, Segoe UI Emoji" font-size="20px" fill="#1e1e1e" text-anchor="start" style="white-space: pre;" direction="ltr" dominant-baseline="text-before-edge">0,N</text></g><g stroke-linecap="round"><g transform="translate(776 292.2750244140625) rotate(0 1.556622043917855 29.791641544704333)"><path d="M-0.85 0.04 C-0.47 10.12, 1.18 50.46, 1.86 60.57 M0.9 -0.99 C1.67 8.74, 3.7 48.8, 3.97 58.75" stroke="#1e1e1e" stroke-width="1" fill="none"></path></g></g><mask></mask><g stroke-linecap="round"><g transform="translate(795 466.2750244140625) rotate(0 1.1079693071544057 43.18270977050997)"><path d="M-0.92 1.11 C-0.42 15.14, 2.62 70.29, 3.14 84.46 M0.8 0.64 C1.14 14.82, 1.62 71.76, 2.26 85.72" stroke="#1e1e1e" stroke-width="1" fill="none"></path></g></g><mask></mask><g transform="translate(795 312.2750244140625) rotate(0 11.716666221618652 12.5)"><text x="0" y="0" font-family="Virgil, Segoe UI Emoji" font-size="20px" fill="#1e1e1e" text-anchor="start" style="white-space: pre;" direction="ltr" dominant-baseline="text-before-edge">1,N</text></g><g transform="translate(806 494.2750244140625) rotate(0 7.983333110809326 12.5)"><text x="0" y="0" font-family="Virgil, Segoe UI Emoji" font-size="20px" fill="#1e1e1e" text-anchor="start" style="white-space: pre;" direction="ltr" dominant-baseline="text-before-edge">1,1</text></g><g stroke-linecap="round"><g transform="translate(164 308.2750244140625) rotate(0 -0.515997265251352 23.68600905192085)"><path d="M-1.05 -0.5 C-1.14 7.57, -0.9 39.51, -1.14 47.77 M0.61 -1.82 C0.48 6.5, -0.94 41, -1.64 49.19" stroke="#1e1e1e" stroke-width="1" fill="none"></path></g></g><mask></mask><g stroke-linecap="round"><g transform="translate(168 471.2750244140625) rotate(0 -1.9454839544789877 32.03683629394044)"><path d="M0.3 0.89 C-0.22 11.64, -2.98 53.31, -3.85 63.76 M-1.01 0.31 C-1.52 10.79, -3.42 51.83, -4.19 62.04" stroke="#1e1e1e" stroke-width="1" fill="none"></path></g></g><mask></mask><g transform="translate(174 323.2750244140625) rotate(0 15.891666412353516 12.5)"><text x="0" y="0" font-family="Virgil, Segoe UI Emoji" font-size="20px" fill="#1e1e1e" text-anchor="start" style="white-space: pre;" direction="ltr" dominant-baseline="text-before-edge">0,N</text></g><g transform="translate(182 491.2750244140625) rotate(0 7.983333110809326 12.5)"><text x="0" y="0" font-family="Virgil, Segoe UI Emoji" font-size="20px" fill="#1e1e1e" text-anchor="start" style="white-space: pre;" direction="ltr" dominant-baseline="text-before-edge">1,1</text></g><g stroke-linecap="round"><g transform="translate(1181 324) rotate(0 -0.0928921457426668 113.10353188544977)"><path d="M0.99 0.2 C0.97 38.14, -0.31 189.5, -0.49 226.95 M0.04 -0.75 C-0.05 36.94, -1.1 187.59, -1.17 225.33" stroke="#1e1e1e" stroke-width="1" fill="none"></path></g><g transform="translate(1181 324) rotate(0 -0.0928921457426668 113.10353188544977)"><path d="M-10.97 197.94 C-7.17 206.08, -7.81 213.32, -1.5 227.16 M-11.27 197.58 C-7.28 205.01, -5.34 213.72, -0.78 225.27" stroke="#1e1e1e" stroke-width="1" fill="none"></path></g><g transform="translate(1181 324) rotate(0 -0.0928921457426668 113.10353188544977)"><path d="M9.55 198.04 C7.86 206.32, 1.72 213.53, -1.5 227.16 M9.25 197.68 C7.34 205.01, 3.39 213.69, -0.78 225.27" stroke="#1e1e1e" stroke-width="1" fill="none"></path></g></g><mask></mask><g stroke-linecap="round"><g transform="translate(1775 305) rotate(0 13.931047628684837 133.04581800115292)"><path d="M1.07 1.14 C5.67 45.17, 23.23 220.15, 27.69 263.91 M0.17 0.69 C4.66 44.94, 22.55 221.37, 27.11 265.4" stroke="#1e1e1e" stroke-width="1" fill="none"></path></g><g transform="translate(1775 305) rotate(0 13.931047628684837 133.04581800115292)"><path d="M15.93 239.56 C17.85 247.98, 21.57 255.13, 27.75 266.12 M14.63 237.75 C18.7 245.3, 22.18 253.28, 27.4 265.41" stroke="#1e1e1e" stroke-width="1" fill="none"></path></g><g transform="translate(1775 305) rotate(0 13.931047628684837 133.04581800115292)"><path d="M36.34 237.47 C31.97 246.72, 29.41 254.51, 27.75 266.12 M35.04 235.66 C33.31 243.96, 30.96 252.54, 27.4 265.41" stroke="#1e1e1e" stroke-width="1" fill="none"></path></g></g><mask></mask><g transform="translate(1454 10) rotate(0 69.2313461303711 12.5)"><text x="0" y="0" font-family="Virgil, Segoe UI Emoji" font-size="20px" fill="#1e1e1e" text-anchor="start" style="white-space: pre;" direction="ltr" dominant-baseline="text-before-edge">user_question</text></g><g stroke-linecap="round"><g transform="translate(1323 190) rotate(0 43.62511924730154 -19.70221761870198)"><path d="M-0.08 -0.57 C14.54 -7.09, 73.85 -32.67, 88.83 -39.36 M-1.58 1.74 C12.78 -5.1, 72.63 -34.22, 87.79 -41.15" stroke="#1e1e1e" stroke-width="1" fill="none"></path></g><g transform="translate(1323 190) rotate(0 43.62511924730154 -19.70221761870198)"><path d="M65.75 -20.09 C76.06 -26.85, 82 -35.92, 87.2 -40.98 M66.72 -20.4 C72.08 -25.66, 78.48 -31.94, 88.36 -40.54" stroke="#1e1e1e" stroke-width="1" fill="none"></path></g><g transform="translate(1323 190) rotate(0 43.62511924730154 -19.70221761870198)"><path d="M56.97 -38.64 C70.67 -38.14, 80.04 -39.96, 87.2 -40.98 M57.94 -38.95 C65.85 -38.91, 74.79 -39.82, 88.36 -40.54" stroke="#1e1e1e" stroke-width="1" fill="none"></path></g></g><mask></mask><g stroke-linecap="round"><g transform="translate(1691 203) rotate(0 -39.37198137162716 -23.7942316301167)"><path d="M0.45 -0.41 C-12.81 -8.26, -65.29 -39.53, -78.5 -47.18 M-0.78 -1.67 C-14.24 -9.33, -66.07 -37.97, -79.19 -45.74" stroke="#1e1e1e" stroke-width="1" fill="none"></path></g><g transform="translate(1691 203) rotate(0 -39.37198137162716 -23.7942316301167)"><path d="M-50.3 -39.87 C-61.36 -42.21, -71.35 -43.64, -80.5 -43.81 M-48.97 -40.68 C-60.86 -42.57, -71.57 -44.24, -78.85 -45.42" stroke="#1e1e1e" stroke-width="1" fill="none"></path></g><g transform="translate(1691 203) rotate(0 -39.37198137162716 -23.7942316301167)"><path d="M-60.46 -22.04 C-67.58 -31.32, -73.64 -39.65, -80.5 -43.81 M-59.13 -22.85 C-67.15 -31.52, -74.01 -39.94, -78.85 -45.42" stroke="#1e1e1e" stroke-width="1" fill="none"></path></g></g><mask></mask><g stroke-linecap="round"><g transform="translate(992 42) rotate(0 0.8948280155929069 417.89395753553606)"><path d="M1.13 -1.03 C1.28 138.41, 1.47 695.87, 1.56 835.53 M0.27 1.04 C0.16 140.74, 0.31 697.82, 0.38 836.82" stroke="#1e1e1e" stroke-width="4" fill="none"></path></g></g><mask></mask><g transform="translate(911 48) rotate(0 31.6641788482666 16.099999999999994)"><text x="0" y="0" font-family="Helvetica, Segoe UI Emoji" font-size="28px" fill="#1971c2" text-anchor="start" style="white-space: pre;" direction="ltr" dominant-baseline="text-before-edge">MCD</text></g><g transform="translate(1012 48) rotate(0 29.55223846435547 16.099999999999994)"><text x="0" y="0" font-family="Helvetica, Segoe UI Emoji" font-size="28px" fill="#1971c2" text-anchor="start" style="white-space: pre;" direction="ltr" dominant-baseline="text-before-edge">MLD</text></g></svg>