<svg version="1.1" xmlns="http://www.w3.org/2000/svg" viewBox="0 0 1504 2077.25" width="1504" height="2077.25">
  <!-- svg-source:excalidraw -->
  
  <defs>
    <style class="style-fonts">
      @font-face {
        font-family: "Virgil";
        src: url("https://excalidraw.com/Virgil.woff2");
      }
      @font-face {
        font-family: "Cascadia";
        src: url("https://excalidraw.com/Cascadia.woff2");
      }
    </style>
    
  </defs>
  <rect x="0" y="0" width="1504" height="2077.25" fill="#ffffff"></rect><g stroke-linecap="round" transform="translate(17 41.5) rotate(0 185 278)"><path d="M32 0 M32 0 C133.76 0.01, 239.4 -1.32, 338 0 M32 0 C107.2 -1.56, 182.13 -1.44, 338 0 M338 0 C361.19 -0.24, 370.81 11.19, 370 32 M338 0 C359.25 1.57, 369.23 11.1, 370 32 M370 32 C367.91 206.31, 368.06 379.42, 370 524 M370 32 C369.46 207.71, 368.98 383.67, 370 524 M370 524 C371.94 546.23, 359.8 557.13, 338 556 M370 524 C371.98 543.08, 359.68 553.9, 338 556 M338 556 C218.08 553.86, 98.36 554.53, 32 556 M338 556 C274.62 557.21, 211.42 557.14, 32 556 M32 556 C11.32 555.3, 0.22 545.18, 0 524 M32 556 C8.46 554.81, -0.39 546.86, 0 524 M0 524 C-0.11 411.54, -0.18 299.4, 0 32 M0 524 C-1.17 404.95, -0.88 286.52, 0 32 M0 32 C-1.54 11.69, 10.71 -1.36, 32 0 M0 32 C0.68 10.6, 11.53 1.52, 32 0" stroke="#1e1e1e" stroke-width="1" fill="none"></path></g><g stroke-linecap="round" transform="translate(584 770.5) rotate(0 185 278)"><path d="M32 0 M32 0 C141.4 0.93, 253.85 0.46, 338 0 M32 0 C127.36 -1.36, 223.81 -1.51, 338 0 M338 0 C358.06 -0.94, 368.7 9.58, 370 32 M338 0 C358.79 -0.8, 368.82 8.62, 370 32 M370 32 C369.98 190.27, 370.18 348.91, 370 524 M370 32 C370.75 227.65, 370.26 423.78, 370 524 M370 524 C371.96 547.28, 360.56 554.64, 338 556 M370 524 C371.71 546.73, 358.44 557.16, 338 556 M338 556 C223.31 556.35, 109.77 555.36, 32 556 M338 556 C223.71 554.99, 110.63 555.35, 32 556 M32 556 C9.82 556.92, 1.39 546.02, 0 524 M32 556 C9.32 556.35, 0.36 546.28, 0 524 M0 524 C-0.07 423.87, -0.87 324.3, 0 32 M0 524 C0.97 409.26, 0.69 295.01, 0 32 M0 32 C0.96 10.88, 8.69 0.65, 32 0 M0 32 C0.54 10.28, 9.62 0.42, 32 0" stroke="#1e1e1e" stroke-width="1" fill="none"></path></g><g stroke-linecap="round" transform="translate(1124 767.5) rotate(0 185 278)"><path d="M32 0 M32 0 C101.32 2.55, 172.16 0.49, 338 0 M32 0 C123.32 -1.95, 213.85 -1.99, 338 0 M338 0 C358.31 0.62, 368.68 9.22, 370 32 M338 0 C357.64 -1.05, 371.49 10.32, 370 32 M370 32 C371.35 141.3, 372.03 249.89, 370 524 M370 32 C367.7 132.28, 367.71 232.48, 370 524 M370 524 C369.83 544.3, 357.96 556.39, 338 556 M370 524 C367.76 544.09, 360.02 556.43, 338 556 M338 556 C273.11 554.66, 204.24 556.37, 32 556 M338 556 C232.82 557.3, 127.58 557.19, 32 556 M32 556 C11.03 557.17, 0.71 543.35, 0 524 M32 556 C9.8 556.14, -0.22 547.62, 0 524 M0 524 C-0.19 359.71, -0.68 194.88, 0 32 M0 524 C-0.09 421.5, 0.03 318.85, 0 32 M0 32 C-1.17 12.01, 11.04 -0.03, 32 0 M0 32 C0.71 12.63, 8.79 -2.12, 32 0" stroke="#1e1e1e" stroke-width="1" fill="none"></path></g><g stroke-linecap="round" transform="translate(15 764.5) rotate(0 185 278)"><path d="M32 0 M32 0 C144.54 0.92, 259.3 0.19, 338 0 M32 0 C123.66 1.33, 214.84 0.93, 338 0 M338 0 C358.04 1.77, 370.02 12.28, 370 32 M338 0 C359.48 1.44, 369.92 9.05, 370 32 M370 32 C371.3 132.77, 370.21 232.02, 370 524 M370 32 C367.88 141.35, 367.96 251.14, 370 524 M370 524 C371.1 544.22, 359.2 555.19, 338 556 M370 524 C371.63 543.78, 359.04 554.86, 338 556 M338 556 C251.86 555.62, 162.98 556.85, 32 556 M338 556 C267.36 556.02, 197.05 557.23, 32 556 M32 556 C12.64 557.3, -0.36 544.32, 0 524 M32 556 C12.91 557.87, 0.39 545.84, 0 524 M0 524 C-1.44 418.21, -1.56 312.9, 0 32 M0 524 C-0.3 407.74, -0.64 291.38, 0 32 M0 32 C1.61 12.58, 11.42 -1.79, 32 0 M0 32 C0.43 12.49, 12.69 -1.87, 32 0" stroke="#1e1e1e" stroke-width="1" fill="none"></path></g><g stroke-linecap="round" transform="translate(10 1455.5) rotate(0 185 278)"><path d="M32 0 M32 0 C122.14 -0.18, 209.9 -1.74, 338 0 M32 0 C129.93 -0.43, 227.63 -0.39, 338 0 M338 0 C359.19 -0.69, 369.83 10.96, 370 32 M338 0 C358.61 0.55, 371.36 11.76, 370 32 M370 32 C368.7 144.37, 369.17 256.31, 370 524 M370 32 C370.78 223.25, 370.45 414.77, 370 524 M370 524 C370.69 544.14, 358.82 557.63, 338 556 M370 524 C370.93 546.35, 359.01 555.26, 338 556 M338 556 C266.17 553.97, 195.15 553.78, 32 556 M338 556 C258.48 557.11, 178.17 557.55, 32 556 M32 556 C12.42 555.88, -0.51 547.24, 0 524 M32 556 C9.13 554.07, 0.36 543.04, 0 524 M0 524 C0.09 332.13, -0.48 142.13, 0 32 M0 524 C-1.79 367.74, -1.86 211.77, 0 32 M0 32 C1.68 10.63, 9.96 -0.7, 32 0 M0 32 C-1.07 10.49, 12.59 1.09, 32 0" stroke="#1e1e1e" stroke-width="1" fill="none"></path></g><g stroke-linecap="round" transform="translate(572 40.5) rotate(0 185 278)"><path d="M32 0 M32 0 C111.36 1.78, 191.23 -0.02, 338 0 M32 0 C111.81 -0.45, 190.56 0.16, 338 0 M338 0 C359.97 -1.36, 370.79 11.59, 370 32 M338 0 C359.46 -1.22, 369.15 11.28, 370 32 M370 32 C371.54 186.39, 370.94 340.84, 370 524 M370 32 C371.84 223.95, 371.54 415.68, 370 524 M370 524 C369.81 546.5, 357.89 557.12, 338 556 M370 524 C371.4 545.32, 360.96 555.5, 338 556 M338 556 C257.26 557.96, 176.83 557.6, 32 556 M338 556 C273.62 554.22, 209.63 553.55, 32 556 M32 556 C9.51 554.47, -0.95 545.12, 0 524 M32 556 C11.13 557.16, 2.15 544.79, 0 524 M0 524 C-2.56 424.56, -2.74 324.95, 0 32 M0 524 C1.47 416.67, 1.54 308.87, 0 32 M0 32 C-1.99 10.22, 11.2 -0.64, 32 0 M0 32 C-2.23 10.39, 9.81 -0.73, 32 0" stroke="#1e1e1e" stroke-width="1" fill="none"></path></g><g transform="translate(322 58.5) rotate(0 23.477611541748047 12.5)"><text x="0" y="0" font-family="Virgil, Segoe UI Emoji" font-size="20px" fill="#1e1e1e" text-anchor="start" style="white-space: pre;" direction="ltr" dominant-baseline="text-before-edge">Menu</text></g><g transform="translate(889 787.5) rotate(0 23.477611541748047 12.5)"><text x="0" y="0" font-family="Virgil, Segoe UI Emoji" font-size="20px" fill="#1e1e1e" text-anchor="start" style="white-space: pre;" direction="ltr" dominant-baseline="text-before-edge">Menu</text></g><g transform="translate(1429 784.5) rotate(0 23.477611541748047 12.5)"><text x="0" y="0" font-family="Virgil, Segoe UI Emoji" font-size="20px" fill="#1e1e1e" text-anchor="start" style="white-space: pre;" direction="ltr" dominant-baseline="text-before-edge">Menu</text></g><g transform="translate(320 781.5) rotate(0 23.477611541748047 12.5)"><text x="0" y="0" font-family="Virgil, Segoe UI Emoji" font-size="20px" fill="#1e1e1e" text-anchor="start" style="white-space: pre;" direction="ltr" dominant-baseline="text-before-edge">Menu</text></g><g transform="translate(315 1472.5) rotate(0 23.477611541748047 12.5)"><text x="0" y="0" font-family="Virgil, Segoe UI Emoji" font-size="20px" fill="#1e1e1e" text-anchor="start" style="white-space: pre;" direction="ltr" dominant-baseline="text-before-edge">Menu</text></g><g transform="translate(877 57.5) rotate(0 23.477611541748047 12.5)"><text x="0" y="0" font-family="Virgil, Segoe UI Emoji" font-size="20px" fill="#1e1e1e" text-anchor="start" style="white-space: pre;" direction="ltr" dominant-baseline="text-before-edge">Menu</text></g><g transform="translate(37 54.5) rotate(0 53.19403076171875 12.5)"><text x="0" y="0" font-family="Virgil, Segoe UI Emoji" font-size="20px" fill="#1e1e1e" text-anchor="start" style="white-space: pre;" direction="ltr" dominant-baseline="text-before-edge">SimplyQuizz</text></g><g transform="translate(604 783.5) rotate(0 53.19403076171875 12.5)"><text x="0" y="0" font-family="Virgil, Segoe UI Emoji" font-size="20px" fill="#1e1e1e" text-anchor="start" style="white-space: pre;" direction="ltr" dominant-baseline="text-before-edge">SimplyQuizz</text></g><g transform="translate(1144 780.5) rotate(0 53.19403076171875 12.5)"><text x="0" y="0" font-family="Virgil, Segoe UI Emoji" font-size="20px" fill="#1e1e1e" text-anchor="start" style="white-space: pre;" direction="ltr" dominant-baseline="text-before-edge">SimplyQuizz</text></g><g transform="translate(35 777.5) rotate(0 53.19403076171875 12.5)"><text x="0" y="0" font-family="Virgil, Segoe UI Emoji" font-size="20px" fill="#1e1e1e" text-anchor="start" style="white-space: pre;" direction="ltr" dominant-baseline="text-before-edge">SimplyQuizz</text></g><g transform="translate(30 1468.5) rotate(0 53.19403076171875 12.5)"><text x="0" y="0" font-family="Virgil, Segoe UI Emoji" font-size="20px" fill="#1e1e1e" text-anchor="start" style="white-space: pre;" direction="ltr" dominant-baseline="text-before-edge">SimplyQuizz</text></g><g transform="translate(592 53.5) rotate(0 53.19403076171875 12.5)"><text x="0" y="0" font-family="Virgil, Segoe UI Emoji" font-size="20px" fill="#1e1e1e" text-anchor="start" style="white-space: pre;" direction="ltr" dominant-baseline="text-before-edge">SimplyQuizz</text></g><g stroke-linecap="round" transform="translate(96 258.5) rotate(0 111 20.5)"><path d="M10.25 0 M10.25 0 C75.49 3.27, 136.1 1.61, 211.75 0 M10.25 0 C71.13 1.95, 129.61 0.74, 211.75 0 M211.75 0 C218.93 -1.19, 221.05 2.05, 222 10.25 M211.75 0 C218.28 1.28, 221.28 4.65, 222 10.25 M222 10.25 C220.47 17.64, 223.18 24.79, 222 30.75 M222 10.25 C222.69 14.67, 222.7 20.1, 222 30.75 M222 30.75 C221.99 37.43, 218.57 40.67, 211.75 41 M222 30.75 C223.94 35.98, 216.75 42.4, 211.75 41 M211.75 41 C161.49 41.78, 113.58 43.36, 10.25 41 M211.75 41 C141.47 39.72, 68.99 40.38, 10.25 41 M10.25 41 C3.78 41.85, -1.98 39.35, 0 30.75 M10.25 41 C4.62 39.87, 0.84 36.7, 0 30.75 M0 30.75 C0.06 24.76, 0.81 18.44, 0 10.25 M0 30.75 C0.46 24.15, 0.43 19.94, 0 10.25 M0 10.25 C-1.16 3.91, 2.77 0.37, 10.25 0 M0 10.25 C-1.48 1.86, 3.21 0.49, 10.25 0" stroke="#1e1e1e" stroke-width="1" fill="none"></path></g><g transform="translate(172.58208847045898 266.5) rotate(0 34.417911529541016 12.5)"><text x="34.417911529541016" y="0" font-family="Virgil, Segoe UI Emoji" font-size="20px" fill="#1e1e1e" text-anchor="middle" style="white-space: pre;" direction="ltr" dominant-baseline="text-before-edge">Pseudo</text></g><g stroke-linecap="round" transform="translate(93 362.5) rotate(0 111 20.5)"><path d="M10.25 0 M10.25 0 C77.64 -0.88, 146.02 -1.14, 211.75 0 M10.25 0 C79.32 0.76, 148.12 0.47, 211.75 0 M211.75 0 C217.23 -0.18, 222.43 2.15, 222 10.25 M211.75 0 C220.69 -0.79, 223.57 3.21, 222 10.25 M222 10.25 C223.53 16.47, 221.03 21.19, 222 30.75 M222 10.25 C222.27 14.09, 221.68 19.48, 222 30.75 M222 30.75 C221.63 36.69, 219.89 40.61, 211.75 41 M222 30.75 C222.54 39.02, 219.41 38.88, 211.75 41 M211.75 41 C144.23 41.46, 77.85 42.53, 10.25 41 M211.75 41 C161.28 39.81, 109.13 39.34, 10.25 41 M10.25 41 C4.48 39.91, 0.71 36.86, 0 30.75 M10.25 41 C5.22 39.53, 0.82 38.55, 0 30.75 M0 30.75 C0.02 24.47, 0.74 21.11, 0 10.25 M0 30.75 C-0.27 24.58, -0.29 17.1, 0 10.25 M0 10.25 C-1.87 2.65, 2.35 -1.91, 10.25 0 M0 10.25 C-1.52 1.43, 3.71 -1.76, 10.25 0" stroke="#1e1e1e" stroke-width="1" fill="none"></path></g><g transform="translate(159.19403076171875 370.5) rotate(0 44.80596923828125 12.5)"><text x="44.80596923828125" y="0" font-family="Virgil, Segoe UI Emoji" font-size="20px" fill="#1e1e1e" text-anchor="middle" style="white-space: pre;" direction="ltr" dominant-baseline="text-before-edge">Connexion</text></g><g transform="translate(35 565) rotate(0 64.223876953125 10)"><text x="0" y="0" font-family="Virgil, Segoe UI Emoji" font-size="16px" fill="#1e1e1e" text-anchor="start" style="white-space: pre;" direction="ltr" dominant-baseline="text-before-edge">Mentions légales</text></g><g transform="translate(602 1294) rotate(0 64.223876953125 10)"><text x="0" y="0" font-family="Virgil, Segoe UI Emoji" font-size="16px" fill="#1e1e1e" text-anchor="start" style="white-space: pre;" direction="ltr" dominant-baseline="text-before-edge">Mentions légales</text></g><g transform="translate(1142 1291) rotate(0 64.223876953125 10)"><text x="0" y="0" font-family="Virgil, Segoe UI Emoji" font-size="16px" fill="#1e1e1e" text-anchor="start" style="white-space: pre;" direction="ltr" dominant-baseline="text-before-edge">Mentions légales</text></g><g transform="translate(33 1288) rotate(0 64.223876953125 10)"><text x="0" y="0" font-family="Virgil, Segoe UI Emoji" font-size="16px" fill="#1e1e1e" text-anchor="start" style="white-space: pre;" direction="ltr" dominant-baseline="text-before-edge">Mentions légales</text></g><g transform="translate(28 1979) rotate(0 64.223876953125 10)"><text x="0" y="0" font-family="Virgil, Segoe UI Emoji" font-size="16px" fill="#1e1e1e" text-anchor="start" style="white-space: pre;" direction="ltr" dominant-baseline="text-before-edge">Mentions légales</text></g><g transform="translate(590 564) rotate(0 64.223876953125 10)"><text x="0" y="0" font-family="Virgil, Segoe UI Emoji" font-size="16px" fill="#1e1e1e" text-anchor="start" style="white-space: pre;" direction="ltr" dominant-baseline="text-before-edge">Mentions légales</text></g><g transform="translate(221 564.5) rotate(0 76.20895385742188 10)"><text x="0" y="0" font-family="Virgil, Segoe UI Emoji" font-size="16px" fill="#1e1e1e" text-anchor="start" style="white-space: pre;" direction="ltr" dominant-baseline="text-before-edge">SimplyQuizz - 2023</text></g><g transform="translate(788 1293.5) rotate(0 76.20895385742188 10)"><text x="0" y="0" font-family="Virgil, Segoe UI Emoji" font-size="16px" fill="#1e1e1e" text-anchor="start" style="white-space: pre;" direction="ltr" dominant-baseline="text-before-edge">SimplyQuizz - 2023</text></g><g transform="translate(1328 1290.5) rotate(0 76.20895385742188 10)"><text x="0" y="0" font-family="Virgil, Segoe UI Emoji" font-size="16px" fill="#1e1e1e" text-anchor="start" style="white-space: pre;" direction="ltr" dominant-baseline="text-before-edge">SimplyQuizz - 2023</text></g><g transform="translate(219 1287.5) rotate(0 76.20895385742188 10)"><text x="0" y="0" font-family="Virgil, Segoe UI Emoji" font-size="16px" fill="#1e1e1e" text-anchor="start" style="white-space: pre;" direction="ltr" dominant-baseline="text-before-edge">SimplyQuizz - 2023</text></g><g transform="translate(214 1978.5) rotate(0 76.20895385742188 10)"><text x="0" y="0" font-family="Virgil, Segoe UI Emoji" font-size="16px" fill="#1e1e1e" text-anchor="start" style="white-space: pre;" direction="ltr" dominant-baseline="text-before-edge">SimplyQuizz - 2023</text></g><g transform="translate(776 563.5) rotate(0 76.20895385742188 10)"><text x="0" y="0" font-family="Virgil, Segoe UI Emoji" font-size="16px" fill="#1e1e1e" text-anchor="start" style="white-space: pre;" direction="ltr" dominant-baseline="text-before-edge">SimplyQuizz - 2023</text></g><g transform="translate(42 13) rotate(0 44.80596923828125 12.5)"><text x="0" y="0" font-family="Virgil, Segoe UI Emoji" font-size="20px" fill="#1e1e1e" text-anchor="start" style="white-space: pre;" direction="ltr" dominant-baseline="text-before-edge">Connexion</text></g><g transform="translate(609 742) rotate(0 60.86567306518555 12.5)"><text x="0" y="0" font-family="Virgil, Segoe UI Emoji" font-size="20px" fill="#1e1e1e" text-anchor="start" style="white-space: pre;" direction="ltr" dominant-baseline="text-before-edge">Leaderboard</text></g><g transform="translate(1149 739) rotate(0 80.2686538696289 12.5)"><text x="0" y="0" font-family="Virgil, Segoe UI Emoji" font-size="20px" fill="#1e1e1e" text-anchor="start" style="white-space: pre;" direction="ltr" dominant-baseline="text-before-edge">Mentions légales</text></g><g transform="translate(40 734) rotate(0 41.599998474121094 12.5)"><text x="0" y="0" font-family="Virgil, Segoe UI Emoji" font-size="20px" fill="#1e1e1e" text-anchor="start" style="white-space: pre;" direction="ltr" dominant-baseline="text-before-edge">Quizz (1)</text></g><g transform="translate(35 1425) rotate(0 46.00833511352539 12.5)"><text x="0" y="0" font-family="Virgil, Segoe UI Emoji" font-size="20px" fill="#1e1e1e" text-anchor="start" style="white-space: pre;" direction="ltr" dominant-baseline="text-before-edge">Quizz (2)</text></g><g transform="translate(597 10) rotate(0 26.119403839111328 12.5)"><text x="0" y="0" font-family="Virgil, Segoe UI Emoji" font-size="20px" fill="#1e1e1e" text-anchor="start" style="white-space: pre;" direction="ltr" dominant-baseline="text-before-edge">Profil</text></g><g stroke-linecap="round" transform="translate(68 881.5) rotate(0 128.5 37)"><path d="M18.5 0 M18.5 0 C101.45 -0.14, 182.58 1.9, 238.5 0 M18.5 0 C69.42 0.09, 119.44 -1.46, 238.5 0 M238.5 0 C249.59 1.41, 258.94 7.05, 257 18.5 M238.5 0 C248.71 0.35, 256.4 6.57, 257 18.5 M257 18.5 C255.68 34.07, 255.75 47.29, 257 55.5 M257 18.5 C256.64 31.48, 257.49 45.38, 257 55.5 M257 55.5 C257.63 67.22, 249.08 73.09, 238.5 74 M257 55.5 C257.55 67.43, 250.96 75.26, 238.5 74 M238.5 74 C187.8 73.37, 139.89 72.81, 18.5 74 M238.5 74 C166.17 73.22, 94.38 73.03, 18.5 74 M18.5 74 C4.26 74.67, 1.63 67.85, 0 55.5 M18.5 74 C7.82 73.72, 0.74 67.41, 0 55.5 M0 55.5 C0.27 43.81, -0.5 32.97, 0 18.5 M0 55.5 C0.22 46.88, 0.56 37.42, 0 18.5 M0 18.5 C1.74 6.71, 7.04 0.33, 18.5 0 M0 18.5 C2.17 4.77, 6.02 -0.31, 18.5 0" stroke="#1e1e1e" stroke-width="1" fill="none"></path></g><g transform="translate(139.73134231567383 906) rotate(0 56.76865768432617 12.5)"><text x="56.76865768432617" y="0" font-family="Virgil, Segoe UI Emoji" font-size="20px" fill="#1e1e1e" text-anchor="middle" style="white-space: pre;" direction="ltr" dominant-baseline="text-before-edge">Questions ?</text></g><g stroke-linecap="round" transform="translate(63 1572.5) rotate(0 128.5 37)"><path d="M18.5 0 M18.5 0 C73.66 -0.42, 128.33 -0.42, 238.5 0 M18.5 0 C92.43 0.78, 166.22 0.86, 238.5 0 M238.5 0 C252.02 0.95, 255.54 4.61, 257 18.5 M238.5 0 C253 0.79, 258.66 8.27, 257 18.5 M257 18.5 C258.93 32.74, 256.18 45.71, 257 55.5 M257 18.5 C256.87 28.59, 257.53 37.48, 257 55.5 M257 55.5 C256.72 67.19, 249.55 74.62, 238.5 74 M257 55.5 C255.07 68.26, 250.55 76.14, 238.5 74 M238.5 74 C178.72 74.07, 118.15 72.3, 18.5 74 M238.5 74 C151.69 74.71, 64.74 73.16, 18.5 74 M18.5 74 C6.48 72, 1.78 67.57, 0 55.5 M18.5 74 C5.39 73.5, -1.45 65.76, 0 55.5 M0 55.5 C-1.97 41.2, -1.71 26.05, 0 18.5 M0 55.5 C-0.67 47.51, -0.78 40.15, 0 18.5 M0 18.5 C1.67 7.11, 7.06 0.97, 18.5 0 M0 18.5 C-1.89 6.96, 3.94 -1.57, 18.5 0" stroke="#1e1e1e" stroke-width="1" fill="none"></path></g><g transform="translate(134.73134231567383 1597) rotate(0 56.76865768432617 12.5)"><text x="56.76865768432617" y="0" font-family="Virgil, Segoe UI Emoji" font-size="20px" fill="#1e1e1e" text-anchor="middle" style="white-space: pre;" direction="ltr" dominant-baseline="text-before-edge">Questions ?</text></g><g stroke-linecap="round" transform="translate(119 979.5) rotate(0 74.5 19)"><path d="M9.5 0 M9.5 0 C60.11 1.32, 108.85 -0.7, 139.5 0 M9.5 0 C47.43 0.34, 84.52 -0.07, 139.5 0 M139.5 0 C144.98 0.09, 149.77 4.44, 149 9.5 M139.5 0 C143.6 -0.22, 150.46 5.05, 149 9.5 M149 9.5 C149.06 15.71, 148.66 25.13, 149 28.5 M149 9.5 C149.04 14.75, 148.85 20.12, 149 28.5 M149 28.5 C149 34, 145.72 39.42, 139.5 38 M149 28.5 C147.18 36.01, 147.66 38.33, 139.5 38 M139.5 38 C95.84 40.1, 49.95 40.15, 9.5 38 M139.5 38 C91.72 36.69, 44.19 37.01, 9.5 38 M9.5 38 C4.08 39.96, 1.03 36.56, 0 28.5 M9.5 38 C2.98 38.55, 0.81 36.24, 0 28.5 M0 28.5 C0.87 22.59, 0.3 14, 0 9.5 M0 28.5 C-0.03 21.9, -0.51 15.47, 0 9.5 M0 9.5 C-1.34 3.25, 1.31 0.2, 9.5 0 M0 9.5 C-0.77 1.63, 3.8 -0.49, 9.5 0" stroke="#1e1e1e" stroke-width="1" fill="none"></path></g><g transform="translate(145.44029998779297 986) rotate(0 48.05970001220703 12.5)"><text x="48.05970001220703" y="0" font-family="Virgil, Segoe UI Emoji" font-size="20px" fill="#1e1e1e" text-anchor="middle" style="white-space: pre;" direction="ltr" dominant-baseline="text-before-edge">réponse A</text></g><g stroke-linecap="round" transform="translate(114 1670.5) rotate(0 74.5 19)"><path d="M9.5 0 M9.5 0 C55.63 0.22, 101.25 -0.55, 139.5 0 M9.5 0 C43.72 0.05, 79.15 0.29, 139.5 0 M139.5 0 C144.38 -1.56, 150.89 3.85, 149 9.5 M139.5 0 C147.49 2.1, 151.14 5.22, 149 9.5 M149 9.5 C148.06 14.21, 148.21 23.12, 149 28.5 M149 9.5 C149.34 14.49, 148.82 18.33, 149 28.5 M149 28.5 C147.71 35.45, 144.16 38.37, 139.5 38 M149 28.5 C148.72 36.97, 145.25 37.08, 139.5 38 M139.5 38 C101.38 36.15, 63.82 39.83, 9.5 38 M139.5 38 C100.6 38.4, 63.19 38.24, 9.5 38 M9.5 38 C4.95 37.74, -0.68 34.4, 0 28.5 M9.5 38 C1.72 35.93, 2.3 35.22, 0 28.5 M0 28.5 C-1.38 21.17, -1.6 15.16, 0 9.5 M0 28.5 C-0.37 22.76, 0.86 17.61, 0 9.5 M0 9.5 C0.9 4.14, 1.52 0.69, 9.5 0 M0 9.5 C-2.22 1.59, 4.43 -1.74, 9.5 0" stroke="#e03131" stroke-width="1" fill="none"></path></g><g transform="translate(140.44029998779297 1677) rotate(0 48.05970001220703 12.5)"><text x="48.05970001220703" y="0" font-family="Virgil, Segoe UI Emoji" font-size="20px" fill="#e03131" text-anchor="middle" style="white-space: pre;" direction="ltr" dominant-baseline="text-before-edge">réponse A</text></g><g stroke-linecap="round" transform="translate(118 1034.5) rotate(0 74.5 19)"><path d="M9.5 0 M9.5 0 C53.07 -1.86, 95.12 -0.89, 139.5 0 M9.5 0 C55.8 -1.22, 100.92 -0.65, 139.5 0 M139.5 0 C145.66 -0.66, 150.34 2.07, 149 9.5 M139.5 0 C147.29 2.15, 148.41 1, 149 9.5 M149 9.5 C150.77 16.16, 148.24 22.29, 149 28.5 M149 9.5 C148.59 16.16, 149.4 21.28, 149 28.5 M149 28.5 C149.32 35.47, 144.98 39.82, 139.5 38 M149 28.5 C148.88 32.99, 147.19 39.8, 139.5 38 M139.5 38 C97.68 37.55, 61.26 37.2, 9.5 38 M139.5 38 C108.9 38.02, 76.96 39.28, 9.5 38 M9.5 38 C1.78 37.11, -0.46 35.87, 0 28.5 M9.5 38 C3.16 36.79, -1.24 36.86, 0 28.5 M0 28.5 C1.04 23.12, 0.69 20.59, 0 9.5 M0 28.5 C-0.54 24.16, -0.24 20.46, 0 9.5 M0 9.5 C1.72 3.8, 4.93 1.78, 9.5 0 M0 9.5 C-1.31 3.44, 5.4 -1.11, 9.5 0" stroke="#1e1e1e" stroke-width="1" fill="none"></path></g><g transform="translate(143.73134231567383 1041) rotate(0 48.76865768432617 12.5)"><text x="48.76865768432617" y="0" font-family="Virgil, Segoe UI Emoji" font-size="20px" fill="#1e1e1e" text-anchor="middle" style="white-space: pre;" direction="ltr" dominant-baseline="text-before-edge">réponse B</text></g><g stroke-linecap="round" transform="translate(113 1725.5) rotate(0 74.5 19)"><path d="M9.5 0 M9.5 0 C53.24 -0.55, 94.84 -0.57, 139.5 0 M9.5 0 C50.99 0.17, 90.57 -1.09, 139.5 0 M139.5 0 C147.72 0.68, 150.44 5, 149 9.5 M139.5 0 C147.97 2.05, 149.95 5.01, 149 9.5 M149 9.5 C147.95 15.57, 147.76 19.84, 149 28.5 M149 9.5 C148.94 16.45, 148.47 24.3, 149 28.5 M149 28.5 C147.32 35.21, 145.59 39.86, 139.5 38 M149 28.5 C148.42 33.91, 145.79 38.9, 139.5 38 M139.5 38 C101.61 38.5, 59.86 36.24, 9.5 38 M139.5 38 C88.25 35.91, 37.57 36.78, 9.5 38 M9.5 38 C2.49 37.57, -1.26 33.03, 0 28.5 M9.5 38 C5.47 38.39, 2.14 32.64, 0 28.5 M0 28.5 C-1.62 23.92, 0.12 15.47, 0 9.5 M0 28.5 C0.88 23.91, 0.51 18.89, 0 9.5 M0 9.5 C-1.65 3.85, 1.23 -1.37, 9.5 0 M0 9.5 C1.26 1.42, 3.38 0.5, 9.5 0" stroke="#2f9e44" stroke-width="1" fill="none"></path></g><g transform="translate(138.73134231567383 1732) rotate(0 48.76865768432617 12.5)"><text x="48.76865768432617" y="0" font-family="Virgil, Segoe UI Emoji" font-size="20px" fill="#2f9e44" text-anchor="middle" style="white-space: pre;" direction="ltr" dominant-baseline="text-before-edge">réponse B</text></g><g stroke-linecap="round" transform="translate(119 1093.5) rotate(0 74.5 19)"><path d="M9.5 0 M9.5 0 C39.35 0.69, 68.51 -1.35, 139.5 0 M9.5 0 C47.5 0.78, 85.6 0.75, 139.5 0 M139.5 0 C147.7 -0.51, 147.11 4.72, 149 9.5 M139.5 0 C145.85 1.48, 151.14 2.55, 149 9.5 M149 9.5 C149.3 15.53, 147.94 20.88, 149 28.5 M149 9.5 C149.29 15.51, 149.86 22.28, 149 28.5 M149 28.5 C147.4 36.02, 147.4 38.14, 139.5 38 M149 28.5 C146.91 33.79, 143.67 38.15, 139.5 38 M139.5 38 C89.47 37.91, 41.07 36.34, 9.5 38 M139.5 38 C106.25 36.87, 74.4 37.1, 9.5 38 M9.5 38 C2.11 36.92, 1.76 33.52, 0 28.5 M9.5 38 C2.21 37.65, 1.16 33.72, 0 28.5 M0 28.5 C-0.05 22.69, -1.17 15.38, 0 9.5 M0 28.5 C0.27 24.11, 0.81 17.51, 0 9.5 M0 9.5 C0.24 5.11, 2.2 0.22, 9.5 0 M0 9.5 C-1.08 5.28, 1.44 0.51, 9.5 0" stroke="#1e1e1e" stroke-width="1" fill="none"></path></g><g transform="translate(145.55970001220703 1100) rotate(0 47.94029998779297 12.5)"><text x="47.94029998779297" y="0" font-family="Virgil, Segoe UI Emoji" font-size="20px" fill="#1e1e1e" text-anchor="middle" style="white-space: pre;" direction="ltr" dominant-baseline="text-before-edge">réponse C</text></g><g stroke-linecap="round" transform="translate(114 1784.5) rotate(0 74.5 19)"><path d="M9.5 0 M9.5 0 C51.84 -0.07, 95.85 -0.54, 139.5 0 M9.5 0 C50.88 -1.4, 94.66 -0.28, 139.5 0 M139.5 0 C147.28 1.83, 150.86 4.95, 149 9.5 M139.5 0 C146.78 1.84, 148.65 1.85, 149 9.5 M149 9.5 C147.78 12.94, 150.46 18.12, 149 28.5 M149 9.5 C148.36 16.33, 148.18 22.76, 149 28.5 M149 28.5 C148.75 36.69, 145.33 37.2, 139.5 38 M149 28.5 C148.96 35.74, 145.97 38.76, 139.5 38 M139.5 38 C112.9 38.63, 88.45 37.8, 9.5 38 M139.5 38 C112.31 36.57, 82.99 36.49, 9.5 38 M9.5 38 C1.91 36.2, 2 35.17, 0 28.5 M9.5 38 C5.31 35.81, 0.58 32.94, 0 28.5 M0 28.5 C0.15 21.99, -0.48 15.94, 0 9.5 M0 28.5 C0.27 23.41, -0.94 17.72, 0 9.5 M0 9.5 C-1.93 1.8, 4.26 -1.52, 9.5 0 M0 9.5 C0.21 3.67, 1.26 0.68, 9.5 0" stroke="#e03131" stroke-width="1" fill="none"></path></g><g transform="translate(140.55970001220703 1791) rotate(0 47.94029998779297 12.5)"><text x="47.94029998779297" y="0" font-family="Virgil, Segoe UI Emoji" font-size="20px" fill="#e03131" text-anchor="middle" style="white-space: pre;" direction="ltr" dominant-baseline="text-before-edge">réponse C</text></g><g stroke-linecap="round" transform="translate(120 1147.5) rotate(0 74.5 19)"><path d="M9.5 0 M9.5 0 C56.32 -0.11, 101.55 1.41, 139.5 0 M9.5 0 C41.11 -2.16, 74 -1.21, 139.5 0 M139.5 0 C147.12 1.86, 148.46 2.37, 149 9.5 M139.5 0 C143.95 0.26, 149.55 4.49, 149 9.5 M149 9.5 C149.06 14.6, 149.75 18.27, 149 28.5 M149 9.5 C149.55 17.67, 149.06 23.5, 149 28.5 M149 28.5 C148.09 32.95, 145.97 39.64, 139.5 38 M149 28.5 C148.76 33.42, 145.4 38.81, 139.5 38 M139.5 38 C96.52 35.99, 49.36 36.92, 9.5 38 M139.5 38 C93.23 38.19, 47.37 36.9, 9.5 38 M9.5 38 C2.86 39.01, -0.97 35.47, 0 28.5 M9.5 38 C4.38 36.05, 0.07 35.44, 0 28.5 M0 28.5 C0.34 25.51, 0.65 20.91, 0 9.5 M0 28.5 C1.03 20.65, 0.21 13.28, 0 9.5 M0 9.5 C1.83 1.67, 3.61 0.17, 9.5 0 M0 9.5 C2.19 1.9, 1.84 1.08, 9.5 0" stroke="#1e1e1e" stroke-width="1" fill="none"></path></g><g transform="translate(145.2014923095703 1154) rotate(0 49.29850769042969 12.5)"><text x="49.29850769042969" y="0" font-family="Virgil, Segoe UI Emoji" font-size="20px" fill="#1e1e1e" text-anchor="middle" style="white-space: pre;" direction="ltr" dominant-baseline="text-before-edge">réponse D</text></g><g stroke-linecap="round" transform="translate(115 1838.5) rotate(0 74.5 19)"><path d="M9.5 0 M9.5 0 C47.84 -0.52, 86.08 1.29, 139.5 0 M9.5 0 C55.63 1.36, 100.59 1.93, 139.5 0 M139.5 0 C147.69 1.78, 149.83 4.77, 149 9.5 M139.5 0 C145.49 -1.32, 146.85 2.03, 149 9.5 M149 9.5 C150.44 16.62, 149.73 21.94, 149 28.5 M149 9.5 C148.08 14.77, 148.76 20.56, 149 28.5 M149 28.5 C148.5 34.03, 145.8 38.79, 139.5 38 M149 28.5 C149.13 35.59, 143.62 40.15, 139.5 38 M139.5 38 C91.01 36.33, 37.03 37.98, 9.5 38 M139.5 38 C113.15 37.61, 86.84 36.93, 9.5 38 M9.5 38 C5.17 38.34, 1.86 32.93, 0 28.5 M9.5 38 C3.75 36.11, 0.17 32.68, 0 28.5 M0 28.5 C-0.66 20.32, -0.14 15.49, 0 9.5 M0 28.5 C-0.87 22.23, -1 14.66, 0 9.5 M0 9.5 C1.1 1.65, 3.35 0.44, 9.5 0 M0 9.5 C-1.91 3.84, 2.62 -1.95, 9.5 0" stroke="#e03131" stroke-width="1" fill="none"></path></g><g transform="translate(140.2014923095703 1845) rotate(0 49.29850769042969 12.5)"><text x="49.29850769042969" y="0" font-family="Virgil, Segoe UI Emoji" font-size="20px" fill="#e03131" text-anchor="middle" style="white-space: pre;" direction="ltr" dominant-baseline="text-before-edge">réponse D</text></g><g stroke-linecap="round" transform="translate(77 1211.5) rotate(0 115.5 19.5)"><path d="M9.75 0 M9.75 0 C73.46 1.08, 131.95 2.17, 221.25 0 M221.25 0 C229 -0.15, 230.56 4.51, 231 9.75 M231 9.75 C232.5 14.57, 231.52 17.83, 231 29.25 M231 29.25 C229.04 34.58, 228.16 37.53, 221.25 39 M221.25 39 C161.58 38.17, 105.02 38.37, 9.75 39 M9.75 39 C2.97 38.26, 1.07 37.03, 0 29.25 M0 29.25 C-1.09 20.16, 0.76 13.04, 0 9.75 M0 9.75 C-0.65 1.4, 3.77 -1.83, 9.75 0" stroke="#1e1e1e" stroke-width="1.5" fill="none" stroke-dasharray="8 9"></path></g><g transform="translate(156.3283576965332 1218.5) rotate(0 36.1716423034668 12.5)"><text x="36.1716423034668" y="0" font-family="Virgil, Segoe UI Emoji" font-size="20px" fill="#1e1e1e" text-anchor="middle" style="white-space: pre;" direction="ltr" dominant-baseline="text-before-edge">Suivant</text></g><g stroke-linecap="round" transform="translate(72 1902.5) rotate(0 115.5 19.5)"><path d="M9.75 0 M9.75 0 C71.87 1.63, 133.99 -0.7, 221.25 0 M9.75 0 C57.33 0.17, 104.45 0.15, 221.25 0 M221.25 0 C228.58 1.6, 230.7 2.1, 231 9.75 M221.25 0 C225.6 -1.14, 231.79 1.88, 231 9.75 M231 9.75 C232.02 14.83, 230.53 19.2, 231 29.25 M231 9.75 C230.72 17.11, 230.59 22.26, 231 29.25 M231 29.25 C230.97 36.54, 227.87 39.66, 221.25 39 M231 29.25 C228.79 37.9, 229.77 38.86, 221.25 39 M221.25 39 C161.72 38.02, 103.39 39.32, 9.75 39 M221.25 39 C160.05 37.81, 100.83 38.75, 9.75 39 M9.75 39 C5.11 37.1, 0.5 34.1, 0 29.25 M9.75 39 C3.42 36.85, 1.93 35.71, 0 29.25 M0 29.25 C-0.08 25.72, 0.99 19.81, 0 9.75 M0 29.25 C-0.78 21.79, 0.7 14.92, 0 9.75 M0 9.75 C0.18 3.69, 1.59 0.59, 9.75 0 M0 9.75 C-0.54 1.3, 2.35 -0.48, 9.75 0" stroke="#1e1e1e" stroke-width="1" fill="none"></path></g><g transform="translate(151.3283576965332 1909.5) rotate(0 36.1716423034668 12.5)"><text x="36.1716423034668" y="0" font-family="Virgil, Segoe UI Emoji" font-size="20px" fill="#1e1e1e" text-anchor="middle" style="white-space: pre;" direction="ltr" dominant-baseline="text-before-edge">Suivant</text></g><g stroke-linecap="round"><g transform="translate(625 519.5) rotate(0 -1.6105170728126268 -84.55308978632092)"><path d="M-0.86 0.79 C-1.43 -27.69, -3.67 -141.4, -4.1 -169.89 M0.88 0.15 C0.73 -28.19, -1.07 -140.12, -1.97 -168.3" stroke="#1e1e1e" stroke-width="1" fill="none"></path></g><g transform="translate(625 519.5) rotate(0 -1.6105170728126268 -84.55308978632092)"><path d="M10.23 -142.19 C6.25 -148, 3.15 -154.7, -2.41 -169.74 M9.54 -140.09 C4.37 -150.33, 0.79 -160.25, -2.34 -169.19" stroke="#1e1e1e" stroke-width="1" fill="none"></path></g><g transform="translate(625 519.5) rotate(0 -1.6105170728126268 -84.55308978632092)"><path d="M-10.28 -141.72 C-9.31 -147.49, -7.46 -154.31, -2.41 -169.74 M-10.98 -139.63 C-9.07 -150.21, -5.58 -160.28, -2.34 -169.19" stroke="#1e1e1e" stroke-width="1" fill="none"></path></g></g><mask></mask><g stroke-linecap="round"><g transform="translate(640 1240.5) rotate(0 -0.9403845833335254 -84.79025098010891)"><path d="M-0.38 0.98 C-0.77 -27.49, -2.36 -142.06, -2.71 -170.56 M1.63 0.44 C1.12 -27.88, -2.74 -141.12, -3.51 -169.31" stroke="#1e1e1e" stroke-width="1" fill="none"></path></g><g transform="translate(640 1240.5) rotate(0 -0.9403845833335254 -84.79025098010891)"><path d="M9.25 -140.97 C3.6 -148.26, 1.44 -157.46, -1.95 -170.62 M8.34 -140.81 C3.93 -152.8, -1.35 -163.85, -4.42 -168.79" stroke="#1e1e1e" stroke-width="1" fill="none"></path></g><g transform="translate(640 1240.5) rotate(0 -0.9403845833335254 -84.79025098010891)"><path d="M-11.26 -140.33 C-11.31 -147.74, -7.86 -157.11, -1.95 -170.62 M-12.17 -140.18 C-8.56 -152.21, -5.82 -163.51, -4.42 -168.79" stroke="#1e1e1e" stroke-width="1" fill="none"></path></g></g><mask></mask><g stroke-linecap="round"><g transform="translate(624 519.5) rotate(0 129.16345150396222 -2.530256778742171)"><path d="M-0.84 -0.31 C42.53 -0.61, 215.99 -2.12, 259.17 -2.76 M0.92 -1.51 C44.33 -2.11, 216.06 -4.44, 258.83 -4.75" stroke="#1e1e1e" stroke-width="1" fill="none"></path></g><g transform="translate(624 519.5) rotate(0 129.16345150396222 -2.530256778742171)"><path d="M230.25 7.76 C237.14 4.17, 240.75 1.74, 259.08 -3.65 M231.48 6.2 C238.02 1.7, 246.06 -1.33, 258.51 -4.98" stroke="#1e1e1e" stroke-width="1" fill="none"></path></g><g transform="translate(624 519.5) rotate(0 129.16345150396222 -2.530256778742171)"><path d="M230.02 -12.76 C236.8 -12.04, 240.46 -10.16, 259.08 -3.65 M231.25 -14.32 C237.85 -12.93, 245.96 -10.07, 258.51 -4.98" stroke="#1e1e1e" stroke-width="1" fill="none"></path></g></g><mask></mask><g stroke-linecap="round"><g transform="translate(639 1240.5) rotate(0 128.73631327138753 -2.034791114120708)"><path d="M0.98 0.29 C43.85 -0.07, 214.61 -1.88, 257.44 -2.5 M0.03 -0.61 C42.67 -1.29, 213.34 -4.06, 256.2 -4.36" stroke="#1e1e1e" stroke-width="1" fill="none"></path></g><g transform="translate(639 1240.5) rotate(0 128.73631327138753 -2.034791114120708)"><path d="M228.62 5.32 C237.95 2.59, 245.31 0.81, 254.89 -2.53 M228.78 7.14 C238.61 1.96, 249.16 -2.95, 256.73 -4.73" stroke="#1e1e1e" stroke-width="1" fill="none"></path></g><g transform="translate(639 1240.5) rotate(0 128.73631327138753 -2.034791114120708)"><path d="M228.37 -15.2 C237.72 -11.39, 245.16 -6.63, 254.89 -2.53 M228.53 -13.38 C238.25 -10.73, 248.9 -7.82, 256.73 -4.73" stroke="#1e1e1e" stroke-width="1" fill="none"></path></g></g><mask></mask><g stroke-linecap="round" transform="translate(605 143.5) rotate(0 148 77.5)"><path d="M32 0 M32 0 C113.61 -0.61, 191.82 -0.56, 264 0 M32 0 C83.68 -0.33, 135.62 -0.38, 264 0 M264 0 C286.3 -0.71, 296.17 12.6, 296 32 M264 0 C284.01 1.26, 294.24 10.36, 296 32 M296 32 C297.13 56.89, 293.93 86.28, 296 123 M296 32 C294.93 64.44, 296.02 95.49, 296 123 M296 123 C294.78 142.74, 287.08 156.87, 264 155 M296 123 C294.16 142.82, 283.96 156.5, 264 155 M264 155 C181.98 154.54, 98.74 153.35, 32 155 M264 155 C213.69 154.21, 164.38 153.61, 32 155 M32 155 C9.46 153.27, -0.94 142.44, 0 123 M32 155 C12.87 152.87, -0.4 145.1, 0 123 M0 123 C-1.1 88.75, -1.1 54.48, 0 32 M0 123 C-0.54 95.36, -0.64 65.67, 0 32 M0 32 C-1.55 12.04, 11.28 -0.34, 32 0 M0 32 C-1.32 9.63, 12.15 0.22, 32 0" stroke="#1e1e1e" stroke-width="1" fill="none"></path></g><g transform="translate(687.1194000244141 208.5) rotate(0 65.88059997558594 12.5)"><text x="65.88059997558594" y="0" font-family="Virgil, Segoe UI Emoji" font-size="20px" fill="#1e1e1e" text-anchor="middle" style="white-space: pre;" direction="ltr" dominant-baseline="text-before-edge">Top 5 scores</text></g><g stroke-linecap="round" transform="translate(620 864.5) rotate(0 148 77.5)"><path d="M32 0 M32 0 C93.54 0.23, 156.61 -1.11, 264 0 M32 0 C120.32 -2.63, 207.87 -1.25, 264 0 M264 0 C287.11 -0.68, 295.92 9.69, 296 32 M264 0 C283.24 1.21, 295.15 8.93, 296 32 M296 32 C297.52 65.96, 295.24 102.08, 296 123 M296 32 C295.52 67.53, 294.7 101.28, 296 123 M296 123 C296.88 144.09, 286 156.01, 264 155 M296 123 C294.27 145.5, 285.52 153.49, 264 155 M264 155 C191.24 152.84, 118.14 152.38, 32 155 M264 155 C182.78 155.3, 100.75 155.03, 32 155 M32 155 C11.76 156.94, -0.72 143.69, 0 123 M32 155 C12.17 155.43, 0.49 143.67, 0 123 M0 123 C-0.09 95.56, 0.48 67.76, 0 32 M0 123 C0.64 102.21, 1.07 79.67, 0 32 M0 32 C1.16 9.99, 12.31 1.82, 32 0 M0 32 C-0.31 9.65, 11.28 -1.48, 32 0" stroke="#1e1e1e" stroke-width="1" fill="none"></path></g><g transform="translate(691.6865692138672 917) rotate(0 76.31343078613281 25)"><text x="76.31343078613281" y="0" font-family="Virgil, Segoe UI Emoji" font-size="20px" fill="#1e1e1e" text-anchor="middle" style="white-space: pre;" direction="ltr" dominant-baseline="text-before-edge">Top 10 </text><text x="76.31343078613281" y="25" font-family="Virgil, Segoe UI Emoji" font-size="20px" fill="#1e1e1e" text-anchor="middle" style="white-space: pre;" direction="ltr" dominant-baseline="text-before-edge">meilleurs scores</text></g><g transform="translate(692 1127.5) rotate(0 59.48507308959961 25)"><text x="0" y="0" font-family="Virgil, Segoe UI Emoji" font-size="20px" fill="#1e1e1e" text-anchor="start" style="white-space: pre;" direction="ltr" dominant-baseline="text-before-edge">Progression </text><text x="0" y="25" font-family="Virgil, Segoe UI Emoji" font-size="20px" fill="#1e1e1e" text-anchor="start" style="white-space: pre;" direction="ltr" dominant-baseline="text-before-edge">Top 10</text></g><g transform="translate(170 835.5) rotate(0 30.17910385131836 12.5)"><text x="0" y="0" font-family="Virgil, Segoe UI Emoji" font-size="20px" fill="#1e1e1e" text-anchor="start" style="white-space: pre;" direction="ltr" dominant-baseline="text-before-edge">00:20</text></g><g transform="translate(165 1526.5) rotate(0 26.007463455200195 12.5)"><text x="0" y="0" font-family="Virgil, Segoe UI Emoji" font-size="20px" fill="#1e1e1e" text-anchor="start" style="white-space: pre;" direction="ltr" dominant-baseline="text-before-edge">00:12</text></g><g transform="translate(671 397.5) rotate(0 67.276123046875 25)"><text x="0" y="0" font-family="Virgil, Segoe UI Emoji" font-size="20px" fill="#1e1e1e" text-anchor="start" style="white-space: pre;" direction="ltr" dominant-baseline="text-before-edge">Scores 5 </text><text x="0" y="25" font-family="Virgil, Segoe UI Emoji" font-size="20px" fill="#1e1e1e" text-anchor="start" style="white-space: pre;" direction="ltr" dominant-baseline="text-before-edge">derniers quizz</text></g><g mask="url(#mask-P83F4FM_A9D0qcm_FJI-v)" stroke-linecap="round"><g transform="translate(190 400.5) rotate(0 -1.5222251359679149 179.00485300362573)"><path d="M0.1 0.33 C-0.38 43.33, -2.94 198.23, -3.13 257.94 C-3.31 317.64, -1.31 342.05, -1.01 358.55 M-1.31 -0.54 C-1.41 42.14, -0.93 196.8, -1.01 256.3 C-1.09 315.81, -1.74 339.63, -1.78 356.5" stroke="#1e1e1e" stroke-width="1" fill="none"></path></g><g transform="translate(190 400.5) rotate(0 -1.5222251359679149 179.00485300362573)"><path d="M-11.23 326.34 C-7.47 336, -5.35 343.33, -3.46 357.46 M-12.04 327.95 C-8.13 338.43, -4.18 349.64, -1.96 355.67" stroke="#1e1e1e" stroke-width="1" fill="none"></path></g><g transform="translate(190 400.5) rotate(0 -1.5222251359679149 179.00485300362573)"><path d="M9.29 326.53 C7.39 336.16, 3.85 343.43, -3.46 357.46 M8.48 328.14 C4.51 338.74, 0.58 349.88, -1.96 355.67" stroke="#1e1e1e" stroke-width="1" fill="none"></path></g></g><mask id="mask-P83F4FM_A9D0qcm_FJI-v"><rect x="0" y="0" fill="#fff" width="292" height="858.5"></rect><rect x="136.2985076904297" y="645" fill="#000" width="103.40298461914062" height="25" opacity="1"></rect></mask><g transform="translate(136.2985076904297 645) rotate(0 52.1792671736024 -65.49514699637427)"><text x="51.70149230957031" y="0" font-family="Virgil, Segoe UI Emoji" font-size="20px" fill="#1e1e1e" text-anchor="middle" style="white-space: pre;" direction="ltr" dominant-baseline="text-before-edge">User exist</text></g><g mask="url(#mask-PNWZgiyJLaiWq-8XiKBC_)" stroke-linecap="round"><g transform="translate(312 382.5) rotate(0 128.2393821840687 -0.28056322035814674)"><path d="M1.03 -0.64 C26.41 -1.09, 108.77 -2.19, 151.32 -2.2 C193.88 -2.22, 238.96 -1.1, 256.37 -0.73 M0.11 1.64 C25.97 1.34, 111.06 -0.62, 153.68 -0.77 C196.3 -0.92, 238.77 0.94, 255.8 0.74" stroke="#1e1e1e" stroke-width="1" fill="none"></path></g><g transform="translate(312 382.5) rotate(0 128.2393821840687 -0.28056322035814674)"><path d="M226.42 9.52 C233.31 8.86, 240.3 5.67, 257.5 2.5 M228.42 10.05 C237.95 6.77, 249.09 2.68, 256.58 1.25" stroke="#1e1e1e" stroke-width="1" fill="none"></path></g><g transform="translate(312 382.5) rotate(0 128.2393821840687 -0.28056322035814674)"><path d="M226.67 -11 C233.59 -7.17, 240.52 -5.86, 257.5 2.5 M228.67 -10.47 C238.28 -6.25, 249.33 -2.85, 256.58 1.25" stroke="#1e1e1e" stroke-width="1" fill="none"></path></g></g><mask id="mask-PNWZgiyJLaiWq-8XiKBC_"><rect x="0" y="0" fill="#fff" width="668" height="484.5"></rect><rect x="409.33581924438477" y="368" fill="#000" width="109.32836151123047" height="25" opacity="1"></rect></mask><g transform="translate(409.33581924438477 368) rotate(0 30.903562939683923 14.219436779641853)"><text x="54.664180755615234" y="0" font-family="Virgil, Segoe UI Emoji" font-size="20px" fill="#1e1e1e" text-anchor="middle" style="white-space: pre;" direction="ltr" dominant-baseline="text-before-edge">User !exist</text></g><g stroke-linecap="round" transform="translate(1168 870.5) rotate(0 137 174.5)"><path d="M32 0 M32 0 C102.16 -1.37, 176.99 0.8, 242 0 M32 0 C102.4 1.38, 171.32 -0.05, 242 0 M242 0 C264.71 1.53, 275.39 9.95, 274 32 M242 0 C263.16 -2.25, 274.27 12.39, 274 32 M274 32 C274.33 133.4, 276.38 232.23, 274 317 M274 32 C274.98 115.49, 275.78 199.36, 274 317 M274 317 C275.55 339.23, 263.01 349.57, 242 349 M274 317 C275.65 337.79, 264.66 348.51, 242 349 M242 349 C165.52 350.22, 90.63 350.4, 32 349 M242 349 C172.35 349.69, 101.83 349.87, 32 349 M32 349 C8.67 350.95, 1.09 338.76, 0 317 M32 349 C8.51 348.64, -1.59 339.75, 0 317 M0 317 C-0.47 211.53, 1.05 107.71, 0 32 M0 317 C-0.06 209.72, -0.25 102.46, 0 32 M0 32 C1.17 9.25, 11.62 1.34, 32 0 M0 32 C-2.07 10, 8.42 -0.34, 32 0" stroke="#1e1e1e" stroke-width="1" fill="none"></path></g><g mask="url(#mask--hXkPLK994PHPGJ_ZmPe7)" stroke-linecap="round"><g transform="translate(186 1322.5) rotate(0 0.8868609793483984 65.04207019758405)"><path d="M-1.05 -0.27 C-0.44 21.3, 2.38 108.09, 2.82 130 M0.6 -1.45 C1.2 20.26, 2.3 109.72, 2.31 131.53" stroke="#1e1e1e" stroke-width="1" fill="none"></path></g><g transform="translate(186 1322.5) rotate(0 0.8868609793483984 65.04207019758405)"><path d="M-8.61 104.8 C-5.61 109.34, -1.25 118.29, 3.15 130.87 M-9.06 103.09 C-5.13 111.53, -3.42 119.35, 3.25 130.54" stroke="#1e1e1e" stroke-width="1" fill="none"></path></g><g transform="translate(186 1322.5) rotate(0 0.8868609793483984 65.04207019758405)"><path d="M11.91 104.64 C10.18 109.04, 9.8 118.03, 3.15 130.87 M11.46 102.93 C9.79 111.33, 5.91 119.19, 3.25 130.54" stroke="#1e1e1e" stroke-width="1" fill="none"></path></g></g><mask id="mask--hXkPLK994PHPGJ_ZmPe7"><rect x="0" y="0" fill="#fff" width="288" height="1552.5"></rect><rect x="83.11940002441406" y="1375" fill="#000" width="207.76119995117188" height="25" opacity="1"></rect></mask><g transform="translate(83.11940002441406 1375) rotate(0 103.76746095493434 12.542070197584053)"><text x="103.88059997558594" y="0" font-family="Virgil, Segoe UI Emoji" font-size="20px" fill="#1e1e1e" text-anchor="middle" style="white-space: pre;" direction="ltr" dominant-baseline="text-before-edge">Click sur une réponse</text></g><g stroke-linecap="round"><g transform="translate(506.7066901236036 1375.7425384521484) rotate(0 -59.07107190007855 -59.000165301308584)"><path d="M0.51 0.4 C-19.21 -19.43, -98.02 -98.4, -118.05 -118.4 M-0.68 -0.43 C-20.52 -20.11, -99.23 -97.11, -118.65 -116.85" stroke="#1e1e1e" stroke-width="1" fill="none"></path></g><g transform="translate(506.7066901236036 1375.7425384521484) rotate(0 -59.07107190007855 -59.000165301308584)"><path d="M-90.76 -103.15 C-100.19 -109.74, -110.91 -113.4, -117.46 -117.36 M-91.98 -103.34 C-97.87 -108.09, -104.43 -110.43, -118.64 -116.6" stroke="#1e1e1e" stroke-width="1" fill="none"></path></g><g transform="translate(506.7066901236036 1375.7425384521484) rotate(0 -59.07107190007855 -59.000165301308584)"><path d="M-105.23 -88.6 C-110.09 -99.92, -116.17 -108.25, -117.46 -117.36 M-106.45 -88.78 C-108.82 -96.95, -111.89 -102.8, -118.64 -116.6" stroke="#1e1e1e" stroke-width="1" fill="none"></path></g></g><mask></mask><g transform="translate(408.75 1386.25) rotate(0 99.24626922607422 12.5)"><text x="0" y="0" font-family="Virgil, Segoe UI Emoji" font-size="20px" fill="#1e1e1e" text-anchor="start" style="white-space: pre;" direction="ltr" dominant-baseline="text-before-edge">Page générée en JS</text></g><g stroke-linecap="round"><g transform="translate(495.5 1422.3432778333472) rotate(0 -56.62993699252428 39.603461376197174)"><path d="M0.53 0.97 C-18.2 13.98, -93.79 64.42, -112.58 77.38 M-0.66 0.44 C-19.56 13.68, -95.06 66.02, -113.79 78.77" stroke="#1e1e1e" stroke-width="1" fill="none"></path></g><g transform="translate(495.5 1422.3432778333472) rotate(0 -56.62993699252428 39.603461376197174)"><path d="M-94.75 53.51 C-101.88 61.11, -104.58 68.82, -114.17 78.15 M-95.81 53.81 C-102.09 63.13, -108.87 72, -114.05 79.44" stroke="#1e1e1e" stroke-width="1" fill="none"></path></g><g transform="translate(495.5 1422.3432778333472) rotate(0 -56.62993699252428 39.603461376197174)"><path d="M-83.12 70.41 C-93.43 73.31, -99.41 76.26, -114.17 78.15 M-84.18 70.72 C-94.91 73.65, -106.07 76.16, -114.05 79.44" stroke="#1e1e1e" stroke-width="1" fill="none"></path></g></g><mask></mask><g transform="translate(531.75 1517.25) rotate(0 331.42498779296875 275)"><text x="0" y="0" font-family="Virgil, Segoe UI Emoji" font-size="20px" fill="#1e1e1e" text-anchor="start" style="white-space: pre;" direction="ltr" dominant-baseline="text-before-edge">On arrive sur la page Quizz :</text><text x="0" y="25" font-family="Virgil, Segoe UI Emoji" font-size="20px" fill="#1e1e1e" text-anchor="start" style="white-space: pre;" direction="ltr" dominant-baseline="text-before-edge">fetch JS -&gt; api.php?quizz=new [GET]</text><text x="0" y="50" font-family="Virgil, Segoe UI Emoji" font-size="20px" fill="#1e1e1e" text-anchor="start" style="white-space: pre;" direction="ltr" dominant-baseline="text-before-edge">api.php?quizz=new renvoie </text><text x="0" y="75" font-family="Virgil, Segoe UI Emoji" font-size="20px" fill="#1e1e1e" text-anchor="start" style="white-space: pre;" direction="ltr" dominant-baseline="text-before-edge">6 questions aléatoirements</text><text x="0" y="100" font-family="Virgil, Segoe UI Emoji" font-size="20px" fill="#1e1e1e" text-anchor="start" style="white-space: pre;" direction="ltr" dominant-baseline="text-before-edge"></text><text x="0" y="125" font-family="Virgil, Segoe UI Emoji" font-size="20px" fill="#1e1e1e" text-anchor="start" style="white-space: pre;" direction="ltr" dominant-baseline="text-before-edge">On génère la page :</text><text x="0" y="150" font-family="Virgil, Segoe UI Emoji" font-size="20px" fill="#1e1e1e" text-anchor="start" style="white-space: pre;" direction="ltr" dominant-baseline="text-before-edge">1) on récupère une question et les réponses</text><text x="0" y="175" font-family="Virgil, Segoe UI Emoji" font-size="20px" fill="#1e1e1e" text-anchor="start" style="white-space: pre;" direction="ltr" dominant-baseline="text-before-edge">2) on choisi d'abord la bonne réponse</text><text x="0" y="200" font-family="Virgil, Segoe UI Emoji" font-size="20px" fill="#1e1e1e" text-anchor="start" style="white-space: pre;" direction="ltr" dominant-baseline="text-before-edge">3) on ajoute aléatoirement 3 autres mauvaises réponses</text><text x="0" y="225" font-family="Virgil, Segoe UI Emoji" font-size="20px" fill="#1e1e1e" text-anchor="start" style="white-space: pre;" direction="ltr" dominant-baseline="text-before-edge">4) on mélange les réponses pour l'affichage</text><text x="0" y="250" font-family="Virgil, Segoe UI Emoji" font-size="20px" fill="#1e1e1e" text-anchor="start" style="white-space: pre;" direction="ltr" dominant-baseline="text-before-edge">5) fetch -&gt; api.php {q=id_question, user=session[pseudo]} </text><text x="0" y="275" font-family="Virgil, Segoe UI Emoji" font-size="20px" fill="#1e1e1e" text-anchor="start" style="white-space: pre;" direction="ltr" dominant-baseline="text-before-edge">(insert la question dans la bd) [POST]</text><text x="0" y="300" font-family="Virgil, Segoe UI Emoji" font-size="20px" fill="#1e1e1e" text-anchor="start" style="white-space: pre;" direction="ltr" dominant-baseline="text-before-edge">5') fetch renvoie l'id de la dernière question insérée.</text><text x="0" y="325" font-family="Virgil, Segoe UI Emoji" font-size="20px" fill="#1e1e1e" text-anchor="start" style="white-space: pre;" direction="ltr" dominant-baseline="text-before-edge">6) on affiche la page</text><text x="0" y="350" font-family="Virgil, Segoe UI Emoji" font-size="20px" fill="#1e1e1e" text-anchor="start" style="white-space: pre;" direction="ltr" dominant-baseline="text-before-edge"></text><text x="0" y="375" font-family="Virgil, Segoe UI Emoji" font-size="20px" fill="#1e1e1e" text-anchor="start" style="white-space: pre;" direction="ltr" dominant-baseline="text-before-edge">Au click sur une réponse :</text><text x="0" y="400" font-family="Virgil, Segoe UI Emoji" font-size="20px" fill="#1e1e1e" text-anchor="start" style="white-space: pre;" direction="ltr" dominant-baseline="text-before-edge">1) disabled les réponses</text><text x="0" y="425" font-family="Virgil, Segoe UI Emoji" font-size="20px" fill="#1e1e1e" text-anchor="start" style="white-space: pre;" direction="ltr" dominant-baseline="text-before-edge">2) Stop le timer</text><text x="0" y="450" font-family="Virgil, Segoe UI Emoji" font-size="20px" fill="#1e1e1e" text-anchor="start" style="white-space: pre;" direction="ltr" dominant-baseline="text-before-edge">3) fetch -&gt; api.php {q=id_users_questions, user=session[pseudo]} </text><text x="0" y="475" font-family="Virgil, Segoe UI Emoji" font-size="20px" fill="#1e1e1e" text-anchor="start" style="white-space: pre;" direction="ltr" dominant-baseline="text-before-edge">(update datetime_answer dans la bd) [POST]</text><text x="0" y="500" font-family="Virgil, Segoe UI Emoji" font-size="20px" fill="#1e1e1e" text-anchor="start" style="white-space: pre;" direction="ltr" dominant-baseline="text-before-edge">4) colorise les réponses (bg-danger / bg-success)</text><text x="0" y="525" font-family="Virgil, Segoe UI Emoji" font-size="20px" fill="#1e1e1e" text-anchor="start" style="white-space: pre;" direction="ltr" dominant-baseline="text-before-edge">5) active le bouton "Suivant"</text></g><g transform="translate(616.2777777777776 104.27777777777783) rotate(0 34.42499923706055 12.5)"><text x="0" y="0" font-family="Virgil, Segoe UI Emoji" font-size="20px" fill="#1e1e1e" text-anchor="start" style="white-space: pre;" direction="ltr" dominant-baseline="text-before-edge">Pseudo</text></g><g transform="translate(768.2777777777776 102.27777777777783) rotate(0 62.04999923706055 12.5)"><text x="0" y="0" font-family="Virgil, Segoe UI Emoji" font-size="20px" fill="#1e1e1e" text-anchor="start" style="white-space: pre;" direction="ltr" dominant-baseline="text-before-edge">Nb questions</text></g></svg>